<?xml version="1.0" standalone="no"?><!DOCTYPE svg PUBLIC "-//W3C//DTD SVG 1.1//EN" "http://www.w3.org/Graphics/SVG/1.1/DTD/svg11.dtd"><svg t="1741872711491" class="icon" viewBox="0 0 1024 1024" version="1.1" xmlns="http://www.w3.org/2000/svg" p-id="1170" xmlns:xlink="http://www.w3.org/1999/xlink" width="200" height="200"><path d="M682.666667 938.666667h170.666666a85.333333 85.333333 0 0 0 85.333334-85.333334v-170.666666h-85.333334v170.666666h-170.666666v85.333334z m-341.333334 0v-85.333334H170.666667v-170.666666H85.333333v170.666666a85.333333 85.333333 0 0 0 85.333334 85.333334h170.666666zM85.333333 341.333333h85.333334V170.666667h170.666666V85.333333H170.666667a85.333333 85.333333 0 0 0-85.333334 85.333334v170.666666z m597.333334-256h170.666666a85.333333 85.333333 0 0 1 85.333334 85.333334v170.666666h-85.333334V170.666667h-170.666666V85.333333z" p-id="1171"></path></svg>