<?xml version="1.0" standalone="no"?><!DOCTYPE svg PUBLIC "-//W3C//DTD SVG 1.1//EN" "http://www.w3.org/Graphics/SVG/1.1/DTD/svg11.dtd"><svg height="1000" node-id="1" sillyvg="true" template-height="1000" template-width="1000" version="1.1" viewBox="0 0 1000 1000" width="1000" xmlns="http://www.w3.org/2000/svg" xmlns:xlink="http://www.w3.org/1999/xlink"><defs node-id="184"><clipPath id="XMLID_2_" node-id="7"><path d="M 445.50 611.50 L 436.70 618.00 L 421.20 628.10 L 399.70 640.60 L 377.80 651.40 L 358.20 659.50 L 348.00 663.20 L 337.30 666.50 L 326.30 669.50 L 315.10 672.00 L 303.70 674.00 L 292.10 675.30 L 283.30 675.90 L 274.50 676.10 L 265.70 675.80 L 256.70 675.10 L 247.90 673.90 L 239.00 672.20 L 230.20 669.80 L 221.20 667.00 L 214.30 664.30 L 207.50 661.20 L 200.60 657.60 L 193.70 653.60 L 186.80 649.10 L 180.30 644.30 L 173.80 639.00 L 167.30 633.20 L 160.80 626.70 L 154.40 619.60 L 148.40 612.20 L 142.80 604.60 L 137.70 596.70 L 133.00 588.50 L 128.70 580.10 L 124.90 571.50 L 121.40 562.70 L 118.30 553.70 L 115.60 544.50 L 113.30 535.00 L 111.00 523.20 L 109.20 511.20 L 107.90 498.90 L 107.20 486.50 L 107.00 474.10 L 107.40 461.70 L 108.20 449.30 L 109.50 436.80 L 111.30 424.40 L 113.60 412.10 L 116.30 399.90 L 119.40 387.90 L 122.90 376.00 L 126.90 364.40 L 131.20 353.20 L 135.90 342.20 L 141.00 331.40 L 146.50 321.00 L 152.20 311.10 L 158.20 301.70 L 164.70 292.50 L 171.40 284.00 L 178.30 276.00 L 185.40 268.70 L 191.40 263.10 L 197.60 257.90 L 203.80 253.30 L 210.10 249.10 L 216.60 245.30 L 223.30 241.90 L 230.10 239.10 L 236.90 236.80 L 243.80 235.00 L 250.90 233.70 L 258.00 233.00 L 265.10 232.80 L 272.40 233.30 L 279.90 234.40 L 296.30 238.20 L 305.90 240.10 L 327.10 243.00 L 341.50 244.30 L 356.90 245.00 L 373.30 245.30 L 406.50 244.70 L 441.60 242.50 L 477.40 239.10 L 504.40 235.80 L 531.20 232.10 L 583.50 223.70 L 594.40 222.10 L 605.20 220.90 L 615.90 220.20 L 626.50 220.00 L 637.00 220.20 L 647.60 220.80 L 658.00 221.90 L 668.20 223.40 L 678.40 225.30 L 688.40 227.60 L 698.30 230.40 L 708.10 233.50 L 717.70 237.00 L 727.10 240.90 L 736.30 245.10 L 747.60 251.00 L 758.60 257.30 L 769.20 264.20 L 779.40 271.60 L 789.30 279.60 L 798.70 288.00 L 807.70 296.80 L 816.30 306.20 L 822.90 313.90 L 829.10 322.00 L 834.90 330.30 L 840.50 338.80 L 845.70 347.70 L 850.60 356.70 L 855.00 366.00 L 859.10 375.50 L 862.90 385.20 L 866.20 395.20 L 869.10 405.30 L 871.60 415.60 L 873.70 426.10 L 875.30 436.80 L 876.50 447.80 L 877.20 458.90 L 877.30 469.90 L 876.90 480.80 L 876.00 491.70 L 874.80 500.40 L 873.20 509.00 L 871.20 517.50 L 868.70 526.00 L 865.80 534.40 L 862.50 542.60 L 858.70 550.70 L 854.40 558.80 L 849.50 566.80 L 844.10 574.70 L 838.40 582.20 L 832.00 589.60 L 825.00 597.00 L 817.30 604.30 L 808.90 611.50 L 792.30 624.80 L 764.80 645.60 L 751.70 654.90 L 740.30 662.40 L 730.50 668.40 L 720.50 674.10 L 711.90 678.30 L 704.70 681.30 L 699.00 683.20 L 689.70 685.30 L 685.90 685.60 L 682.00 685.50 L 678.50 684.90 L 675.40 684.00 L 672.70 682.70 L 670.10 681.10 L 665.60 676.80 L 661.40 670.30 L 657.30 661.20 L 654.80 653.60 L 647.10 627.80 L 644.10 619.00 L 640.40 610.20 L 637.60 604.60 L 634.40 599.10 L 630.70 593.90 L 626.20 588.30 L 621.50 583.30 L 616.70 578.70 L 611.70 574.40 L 606.40 570.60 L 600.90 567.10 L 595.30 564.00 L 589.50 561.40 L 583.60 559.10 L 577.50 557.20 L 571.30 555.80 L 565.00 554.80 L 558.60 554.10 L 552.10 553.90 L 545.40 554.20 L 538.90 554.80 L 532.20 555.90 L 525.50 557.40 L 518.70 559.40 L 511.70 561.90 L 505.10 564.70 L 498.40 567.90 L 491.60 571.70 L 484.80 576.00 L 477.90 580.80 L 471.50 585.90 L 465.00 591.40 L 458.50 597.50 L 452.00 604.20 L 445.50 611.50 Z" fill="#000000" fill-rule="nonzero" node-id="187" stroke="none" target-height="465.59998" target-width="770.3" target-x="107" target-y="220"></path></clipPath><clipPath id="XMLID_3_" node-id="20"><path d="M 712.60 298.70 L 306.80 298.70 L 176.00 267.20 L 176.00 598.80 L 312.40 548.10 L 706.90 548.10 L 843.30 598.80 L 843.30 267.20 Z" fill="#000000" fill-rule="nonzero" node-id="191" stroke="none" target-height="331.59998" target-width="667.3" target-x="176" target-y="267.2"></path></clipPath><clipPath id="XMLID_4_" node-id="35"><path d="M 613.10 509.20 L 485.60 509.20 L 484.30 508.90 L 483.30 508.20 L 482.50 507.10 L 482.30 505.80 L 482.30 326.10 L 482.50 324.80 L 483.30 323.70 L 484.30 323.00 L 485.60 322.70 L 613.10 322.70 L 614.40 323.00 L 615.50 323.70 L 616.20 324.80 L 616.40 326.10 L 616.40 505.80 L 616.20 507.10 L 615.50 508.20 L 614.40 508.90 L 613.10 509.20 Z" fill="#000000" fill-rule="nonzero" node-id="195" stroke="none" target-height="186.5" target-width="134.10004" target-x="482.3" target-y="322.7"></path></clipPath><clipPath id="XMLID_5_" node-id="41"><path d="M 613.10 509.20 L 545.20 509.20 L 545.20 440.70 L 616.40 440.70 L 616.40 505.80 L 616.20 507.10 L 615.50 508.20 L 614.40 508.90 L 613.10 509.20 Z" fill="#000000" fill-rule="nonzero" node-id="199" stroke="none" target-height="68.5" target-width="71.20001" target-x="545.2" target-y="440.7"></path></clipPath><clipPath id="SVGID_1_" node-id="55"><path d="M 693.20 437.40 L 690.10 436.90 L 675.00 437.10 L 673.20 433.60 L 671.30 432.40 L 670.20 432.30 L 655.90 433.10 L 654.20 434.20 L 652.10 438.20 L 637.30 438.20 L 635.40 438.40 L 632.20 440.00 L 629.70 442.60 L 622.00 464.10 L 602.20 442.80 L 601.00 442.80 L 600.50 443.10 L 589.80 453.00 L 589.30 454.10 L 589.70 455.20 L 618.70 486.60 L 621.30 488.50 L 622.70 489.10 L 625.00 489.60 L 627.30 489.50 L 629.40 488.70 L 631.30 487.50 L 632.80 485.80 L 633.90 483.70 L 635.70 478.50 L 638.60 495.80 L 681.50 492.70 L 688.30 493.70 L 694.10 493.90 L 696.90 493.70 L 700.10 492.70 L 700.80 492.00 L 701.00 491.00 L 701.00 447.00 L 700.70 444.70 L 700.00 442.70 L 698.80 440.80 L 697.20 439.30 L 695.40 438.20 L 693.20 437.40 Z" fill="#000000" fill-rule="nonzero" node-id="203" stroke="none" target-height="63.5" target-width="111.70001" target-x="589.3" target-y="432.3"></path></clipPath><clipPath id="XMLID_7_" node-id="63"><path d="M 603.60 722.00 L 626.00 722.00 L 626.10 719.00 L 627.10 714.80 L 628.20 712.50 L 630.50 709.80 L 634.00 707.60 L 636.30 706.90 L 645.30 705.10 L 650.30 702.90 L 651.80 701.80 L 654.10 699.00 L 654.80 697.30 L 655.10 695.40 L 655.00 693.10 L 603.60 693.10 L 603.60 722.00 Z" fill="#000000" fill-rule="nonzero" node-id="207" stroke="none" target-height="28.900024" target-width="51.5" target-x="603.6" target-y="693.1"></path></clipPath><clipPath id="SVGID_2_" node-id="71"><path d="M 638.60 495.80 L 623.70 663.30 L 661.40 663.30 L 665.80 516.40 L 676.80 663.30 L 712.80 663.30 L 690.90 491.00 Z" fill="#000000" fill-rule="nonzero" node-id="211" stroke="none" target-height="172.29999" target-width="89.099976" target-x="623.7" target-y="491"></path></clipPath><clipPath id="XMLID_8_" node-id="84"><path d="M 682.70 670.70 L 705.10 670.70 L 705.10 673.70 L 706.10 677.90 L 707.30 680.20 L 709.60 682.90 L 713.00 685.00 L 715.30 685.80 L 724.40 687.60 L 729.30 689.80 L 730.80 690.90 L 733.20 693.70 L 733.80 695.30 L 734.10 697.30 L 734.00 699.60 L 682.70 699.60 L 682.70 670.70 Z" fill="#000000" fill-rule="nonzero" node-id="215" stroke="none" target-height="28.899963" target-width="51.399963" target-x="682.7" target-y="670.7"></path></clipPath><clipPath id="SVGID_3_" node-id="122"><path d="M 420.00 400.40 L 411.90 408.00 L 404.00 413.50 L 400.70 415.30 L 397.60 416.40 L 394.10 416.90 L 369.00 393.50 L 369.90 389.30 L 373.00 382.10 L 375.90 377.20 L 381.10 370.40 L 384.70 366.40 L 389.00 362.30 L 393.20 358.90 L 397.50 355.90 L 402.10 353.30 L 406.40 351.30 L 410.60 349.90 L 414.90 348.90 L 418.90 348.60 L 422.50 348.80 L 425.20 349.40 L 429.70 351.50 L 431.70 353.00 L 433.30 354.90 L 434.60 357.00 L 435.60 359.40 L 436.20 362.00 L 436.50 365.70 L 436.30 369.60 L 435.50 374.00 L 434.30 378.20 L 432.40 382.60 L 430.00 387.30 L 427.20 391.70 L 423.90 396.00 L 420.00 400.40 Z" fill="#000000" fill-rule="nonzero" node-id="219" stroke="none" target-height="68.29999" target-width="67.5" target-x="369" target-y="348.6"></path></clipPath><clipPath id="SVGID_4_" node-id="135"><path d="M 416.70 393.30 L 408.70 400.90 L 400.80 406.40 L 397.40 408.10 L 394.30 409.30 L 390.90 409.80 L 365.80 386.40 L 366.70 382.20 L 369.80 375.00 L 372.70 370.10 L 377.80 363.30 L 381.50 359.30 L 385.70 355.20 L 390.00 351.80 L 394.30 348.80 L 398.80 346.20 L 403.20 344.20 L 407.40 342.80 L 411.70 341.80 L 415.60 341.50 L 419.30 341.70 L 421.90 342.20 L 424.30 343.10 L 426.50 344.40 L 428.40 345.90 L 430.10 347.80 L 431.40 349.90 L 432.30 352.30 L 433.00 354.90 L 433.30 358.60 L 433.10 362.50 L 432.30 366.90 L 431.00 371.10 L 429.20 375.50 L 426.80 380.10 L 424.00 384.60 L 420.60 388.90 L 416.70 393.30 Z" fill="#000000" fill-rule="nonzero" node-id="223" stroke="none" target-height="68.29999" target-width="67.5" target-x="365.8" target-y="341.5"></path></clipPath></defs><g node-id="616"><g node-id="626"><path d="M 445.50 611.50 L 436.70 618.00 L 421.20 628.10 L 399.70 640.60 L 377.80 651.40 L 358.20 659.50 L 348.00 663.20 L 337.30 666.50 L 326.30 669.50 L 315.10 672.00 L 303.70 674.00 L 292.10 675.30 L 283.30 675.90 L 274.50 676.10 L 265.70 675.80 L 256.70 675.10 L 247.90 673.90 L 239.00 672.20 L 230.20 669.80 L 221.20 667.00 L 214.30 664.30 L 207.50 661.20 L 200.60 657.60 L 193.70 653.60 L 186.80 649.10 L 180.30 644.30 L 173.80 639.00 L 167.30 633.20 L 160.80 626.70 L 154.40 619.60 L 148.40 612.20 L 142.80 604.60 L 137.70 596.70 L 133.00 588.50 L 128.70 580.10 L 124.90 571.50 L 121.40 562.70 L 118.30 553.70 L 115.60 544.50 L 113.30 535.00 L 111.00 523.20 L 109.20 511.20 L 107.90 498.90 L 107.20 486.50 L 107.00 474.10 L 107.40 461.70 L 108.20 449.30 L 109.50 436.80 L 111.30 424.40 L 113.60 412.10 L 116.30 399.90 L 119.40 387.90 L 122.90 376.00 L 126.90 364.40 L 131.20 353.20 L 135.90 342.20 L 141.00 331.40 L 146.50 321.00 L 152.20 311.10 L 158.20 301.70 L 164.70 292.50 L 171.40 284.00 L 178.30 276.00 L 185.40 268.70 L 191.40 263.10 L 197.60 257.90 L 203.80 253.30 L 210.10 249.10 L 216.60 245.30 L 223.30 241.90 L 230.10 239.10 L 236.90 236.80 L 243.80 235.00 L 250.90 233.70 L 258.00 233.00 L 265.10 232.80 L 272.40 233.30 L 279.90 234.40 L 296.30 238.20 L 305.90 240.10 L 327.10 243.00 L 341.50 244.30 L 356.90 245.00 L 373.30 245.30 L 406.50 244.70 L 441.60 242.50 L 477.40 239.10 L 504.40 235.80 L 531.20 232.10 L 583.50 223.70 L 594.40 222.10 L 605.20 220.90 L 615.90 220.20 L 626.50 220.00 L 637.00 220.20 L 647.60 220.80 L 658.00 221.90 L 668.20 223.40 L 678.40 225.30 L 688.40 227.60 L 698.30 230.40 L 708.10 233.50 L 717.70 237.00 L 727.10 240.90 L 736.30 245.10 L 747.60 251.00 L 758.60 257.30 L 769.20 264.20 L 779.40 271.60 L 789.30 279.60 L 798.70 288.00 L 807.70 296.80 L 816.30 306.20 L 822.90 313.90 L 829.10 322.00 L 834.90 330.30 L 840.50 338.80 L 845.70 347.70 L 850.60 356.70 L 855.00 366.00 L 859.10 375.50 L 862.90 385.20 L 866.20 395.20 L 869.10 405.30 L 871.60 415.60 L 873.70 426.10 L 875.30 436.80 L 876.50 447.80 L 877.20 458.90 L 877.30 469.90 L 876.90 480.80 L 876.00 491.70 L 874.80 500.40 L 873.20 509.00 L 871.20 517.50 L 868.70 526.00 L 865.80 534.40 L 862.50 542.60 L 858.70 550.70 L 854.40 558.80 L 849.50 566.80 L 844.10 574.70 L 838.40 582.20 L 832.00 589.60 L 825.00 597.00 L 817.30 604.30 L 808.90 611.50 L 792.30 624.80 L 764.80 645.60 L 751.70 654.90 L 740.30 662.40 L 730.50 668.40 L 720.50 674.10 L 711.90 678.30 L 704.70 681.30 L 699.00 683.20 L 689.70 685.30 L 685.90 685.60 L 682.00 685.50 L 678.50 684.90 L 675.40 684.00 L 672.70 682.70 L 670.10 681.10 L 665.60 676.80 L 661.40 670.30 L 657.30 661.20 L 654.80 653.60 L 647.10 627.80 L 644.10 619.00 L 640.40 610.20 L 637.60 604.60 L 634.40 599.10 L 630.70 593.90 L 626.20 588.30 L 621.50 583.30 L 616.70 578.70 L 611.70 574.40 L 606.40 570.60 L 600.90 567.10 L 595.30 564.00 L 589.50 561.40 L 583.60 559.10 L 577.50 557.20 L 571.30 555.80 L 565.00 554.80 L 558.60 554.10 L 552.10 553.90 L 545.40 554.20 L 538.90 554.80 L 532.20 555.90 L 525.50 557.40 L 518.70 559.40 L 511.70 561.90 L 505.10 564.70 L 498.40 567.90 L 491.60 571.70 L 484.80 576.00 L 477.90 580.80 L 471.50 585.90 L 465.00 591.40 L 458.50 597.50 L 452.00 604.20 L 445.50 611.50 Z" fill="#ffebe5" fill-rule="nonzero" group-id="1,11" node-id="233" stroke="none" target-height="465.59998" target-width="770.3" target-x="107" target-y="220"></path></g><g node-id="627"><g clip-path="url(#XMLID_2_)" group-id="1,12" node-id="236"><path d="M 86.80 350.90 L 72.90 350.60 L 60.60 349.60 L 60.90 347.60 L 70.50 348.40 L 86.80 348.90 L 109.30 348.10 L 122.90 346.90 L 142.00 344.30 L 152.60 342.40 L 174.10 337.40 L 185.70 334.10 L 196.20 330.70 L 207.40 326.60 L 219.20 321.80 L 230.80 316.60 L 242.80 310.60 L 255.30 303.70 L 273.70 292.10 L 292.60 278.30 L 301.70 270.90 L 310.90 262.80 L 320.20 254.10 L 329.50 244.70 L 338.30 235.10 L 347.10 224.70 L 355.80 213.50 L 364.60 201.60 L 372.70 189.50 L 380.70 176.50 L 388.60 162.60 L 396.30 147.80 L 398.10 148.70 L 391.20 161.90 L 384.10 174.60 L 376.70 186.80 L 369.10 198.60 L 361.10 209.90 L 352.90 220.70 L 344.20 231.40 L 335.30 241.60 L 326.00 251.40 L 316.60 260.60 L 306.80 269.40 L 296.80 277.80 L 286.80 285.50 L 276.60 292.80 L 266.10 299.60 L 255.40 306.10 L 244.40 312.10 L 233.20 317.80 L 221.80 322.90 L 210.20 327.70 L 198.30 332.10 L 186.20 336.00 L 172.60 339.80 L 159.70 342.90 L 147.50 345.40 L 135.30 347.30 L 113.80 349.80 L 98.90 350.70 L 86.80 350.90 Z" fill="#ffffff" fill-rule="nonzero" group-id="1,12" node-id="238" stroke="none" target-height="203.09999" target-width="337.5" target-x="60.6" target-y="147.8"></path></g></g><g node-id="628"><g clip-path="url(#XMLID_2_)" group-id="1,13" node-id="241"><path d="M 14.00 555.90 L 12.10 555.30 L 15.50 546.50 L 22.10 532.20 L 27.00 523.10 L 32.40 513.50 L 39.20 502.80 L 49.50 488.30 L 61.90 473.20 L 68.80 465.70 L 76.30 458.20 L 84.70 450.60 L 93.20 443.50 L 101.90 436.90 L 110.90 430.90 L 120.10 425.30 L 129.50 420.20 L 139.20 415.60 L 149.10 411.50 L 159.20 407.80 L 169.60 404.70 L 180.40 402.00 L 191.50 399.90 L 202.90 398.20 L 214.50 397.10 L 226.40 396.60 L 238.70 396.60 L 250.60 397.20 L 262.80 398.30 L 275.40 399.90 L 288.20 402.10 L 301.40 404.90 L 328.10 411.60 L 340.20 414.00 L 351.40 415.80 L 361.70 416.80 L 371.10 417.20 L 379.80 417.10 L 387.80 416.40 L 395.40 415.20 L 402.40 413.50 L 408.80 411.40 L 414.60 408.80 L 419.90 405.80 L 424.80 402.40 L 429.30 398.60 L 433.30 394.20 L 436.80 389.60 L 439.90 384.60 L 442.60 379.30 L 444.90 373.60 L 446.70 367.90 L 449.40 355.60 L 450.20 349.00 L 450.80 340.30 L 450.90 331.40 L 450.60 322.30 L 449.80 313.10 L 447.40 295.10 L 444.90 281.90 L 442.10 269.60 L 438.60 256.50 L 431.20 232.50 L 423.90 212.20 L 414.00 188.10 L 415.80 187.30 L 425.80 211.50 L 433.10 231.80 L 436.90 243.70 L 444.00 269.10 L 446.90 281.60 L 449.40 295.00 L 451.80 313.20 L 452.60 322.40 L 452.90 331.70 L 452.70 340.70 L 452.10 349.60 L 451.30 356.20 L 450.10 362.50 L 446.70 374.50 L 444.30 380.30 L 441.60 385.70 L 438.40 390.80 L 434.80 395.50 L 430.70 400.00 L 426.10 403.90 L 421.10 407.40 L 415.70 410.50 L 409.70 413.20 L 403.30 415.40 L 396.20 417.10 L 388.40 418.40 L 380.30 419.10 L 371.50 419.20 L 361.90 418.80 L 351.40 417.80 L 340.10 416.00 L 327.80 413.50 L 302.20 407.10 L 279.40 402.60 L 258.40 399.90 L 245.20 399.00 L 232.70 398.60 L 220.80 398.90 L 209.50 399.70 L 198.10 401.10 L 187.20 402.90 L 177.00 405.10 L 167.20 407.70 L 157.50 410.80 L 148.30 414.10 L 139.60 417.80 L 123.20 426.00 L 115.60 430.40 L 101.70 439.70 L 92.90 446.40 L 84.90 453.00 L 77.80 459.60 L 70.30 467.10 L 63.40 474.50 L 57.10 481.90 L 45.70 496.80 L 34.20 514.50 L 24.00 533.00 L 17.40 547.20 L 14.00 555.90 Z" fill="#ffffff" fill-rule="nonzero" group-id="1,13" node-id="243" stroke="none" target-height="368.60004" target-width="440.8" target-x="12.1" target-y="187.3"></path></g></g><g node-id="629"><g clip-path="url(#XMLID_2_)" group-id="1,14" node-id="246"><path d="M 81.50 770.20 L 68.40 738.70 L 58.80 712.40 L 49.00 681.40 L 44.40 664.60 L 40.40 647.90 L 37.20 632.40 L 34.80 617.90 L 33.40 606.90 L 31.90 586.80 L 31.80 577.80 L 32.10 568.30 L 32.90 559.60 L 34.10 551.50 L 35.60 544.10 L 37.50 537.20 L 39.90 530.20 L 42.80 523.90 L 46.00 518.10 L 49.60 512.90 L 53.50 508.20 L 57.90 503.80 L 62.70 499.90 L 67.90 496.50 L 73.60 493.50 L 79.80 491.00 L 86.40 488.90 L 93.70 487.40 L 101.60 486.30 L 110.20 485.70 L 118.70 485.70 L 128.00 486.30 L 138.00 487.50 L 148.70 489.30 L 160.40 491.70 L 172.90 495.00 L 186.40 499.10 L 271.60 528.80 L 303.20 539.40 L 330.90 548.30 L 357.40 556.40 L 380.40 562.90 L 402.40 568.60 L 421.50 573.00 L 434.00 575.50 L 455.80 579.00 L 466.20 580.20 L 484.60 581.30 L 501.00 581.00 L 515.40 579.40 L 529.20 576.40 L 541.90 572.20 L 550.00 568.70 L 558.00 564.50 L 565.70 559.80 L 573.20 554.60 L 580.80 548.80 L 588.50 542.30 L 596.00 535.50 L 616.80 515.10 L 621.70 511.20 L 626.60 507.90 L 631.50 505.20 L 636.50 503.00 L 641.80 501.30 L 647.10 500.10 L 652.60 499.50 L 658.20 499.50 L 664.00 500.00 L 670.00 501.20 L 676.30 502.90 L 682.90 505.40 L 689.70 508.50 L 696.80 512.50 L 704.30 517.30 L 712.20 523.10 L 720.10 529.60 L 728.50 537.10 L 737.20 545.80 L 746.30 555.60 L 755.90 566.80 L 765.90 579.30 L 776.60 593.50 L 786.50 607.60 L 795.90 621.70 L 812.20 648.00 L 829.50 678.40 L 827.70 679.30 L 818.80 663.20 L 806.40 642.20 L 791.00 618.00 L 782.40 605.40 L 773.20 592.40 L 763.50 579.50 L 753.30 566.90 L 739.20 550.90 L 724.50 536.30 L 717.00 529.70 L 709.60 523.70 L 701.80 518.10 L 694.20 513.30 L 686.70 509.30 L 680.80 506.70 L 675.00 504.60 L 669.30 503.10 L 663.70 502.00 L 658.10 501.50 L 652.70 501.60 L 647.40 502.10 L 642.30 503.20 L 637.20 504.90 L 632.30 507.00 L 627.60 509.60 L 622.80 512.90 L 618.10 516.70 L 597.70 536.70 L 590.40 543.40 L 582.80 549.80 L 575.30 555.60 L 568.00 560.80 L 560.40 565.50 L 552.60 569.70 L 544.70 573.30 L 532.30 577.70 L 518.90 580.80 L 504.90 582.70 L 497.30 583.20 L 484.50 583.30 L 466.10 582.20 L 455.60 581.00 L 433.80 577.50 L 421.30 575.00 L 402.10 570.60 L 380.00 564.90 L 357.00 558.40 L 330.40 550.30 L 302.70 541.40 L 271.00 530.70 L 185.90 501.00 L 172.50 497.00 L 160.20 493.80 L 148.70 491.30 L 138.10 489.50 L 128.20 488.30 L 119.10 487.80 L 110.70 487.70 L 102.20 488.20 L 94.40 489.20 L 87.30 490.80 L 80.70 492.80 L 74.70 495.30 L 69.10 498.20 L 64.00 501.50 L 59.30 505.30 L 55.00 509.50 L 51.30 513.90 L 48.00 518.70 L 45.10 523.80 L 42.60 529.20 L 38.60 540.70 L 37.10 546.80 L 35.90 553.30 L 34.80 561.90 L 34.10 570.90 L 33.90 580.20 L 34.70 599.00 L 35.70 608.60 L 37.60 623.00 L 40.20 637.10 L 43.10 651.00 L 46.30 664.10 L 50.90 680.80 L 60.70 711.80 L 70.30 738.00 L 83.30 769.40 L 81.50 770.20 Z" fill="#ffffff" fill-rule="nonzero" group-id="1,14" node-id="248" stroke="none" target-height="284.5" target-width="797.7" target-x="31.8" target-y="485.7"></path></g></g><g clip-path="url(#XMLID_2_)" group-id="1,15" node-id="251"><path d="M 560.00 359.70 L 551.30 359.40 L 543.60 358.60 L 536.70 357.30 L 530.50 355.60 L 525.10 353.50 L 520.60 351.20 L 516.60 348.50 L 513.00 345.60 L 509.90 342.40 L 507.10 338.80 L 504.80 334.90 L 502.70 330.30 L 501.10 325.20 L 500.00 319.60 L 499.40 313.50 L 499.30 306.70 L 499.80 299.20 L 501.00 290.90 L 502.80 282.40 L 505.40 273.10 L 508.70 262.90 L 512.90 251.80 L 518.10 239.70 L 524.40 226.50 L 530.00 215.60 L 541.30 195.50 L 555.80 172.10 L 564.80 158.70 L 566.50 159.90 L 550.40 184.30 L 538.60 204.30 L 526.10 227.80 L 520.10 240.40 L 513.00 257.50 L 507.10 274.70 L 504.90 283.00 L 502.10 297.40 L 501.30 309.00 L 501.50 314.40 L 502.10 319.80 L 503.10 324.80 L 504.60 329.60 L 506.60 334.00 L 508.90 337.80 L 511.50 341.20 L 514.60 344.40 L 518.10 347.20 L 522.20 349.70 L 526.70 352.00 L 532.10 354.00 L 538.20 355.60 L 545.10 356.80 L 552.90 357.50 L 561.60 357.70 L 573.40 357.30 L 584.60 356.40 L 595.00 355.20 L 604.90 353.60 L 614.90 351.50 L 624.30 349.10 L 633.10 346.40 L 641.40 343.50 L 657.50 336.60 L 671.60 329.20 L 680.40 323.80 L 688.50 318.20 L 695.70 312.70 L 708.80 301.10 L 720.70 288.50 L 726.60 281.40 L 731.90 274.40 L 741.10 260.00 L 748.60 245.90 L 751.60 239.10 L 755.10 229.70 L 757.90 220.90 L 759.90 212.70 L 761.50 204.30 L 762.40 196.70 L 762.70 190.00 L 764.70 190.00 L 764.40 196.80 L 763.50 204.50 L 761.90 213.00 L 759.80 221.40 L 757.00 230.30 L 753.40 239.80 L 746.90 253.70 L 738.30 268.40 L 733.50 275.50 L 728.20 282.60 L 722.30 289.80 L 715.70 297.00 L 704.00 308.30 L 697.00 314.20 L 689.70 319.80 L 681.60 325.40 L 672.60 331.00 L 665.70 334.80 L 650.60 342.00 L 633.80 348.30 L 624.90 351.00 L 615.40 353.40 L 605.30 355.50 L 595.40 357.20 L 584.80 358.40 L 573.60 359.30 L 560.00 359.70 Z" fill="#ffffff" fill-rule="nonzero" group-id="1,15" node-id="253" stroke="none" target-height="201.00002" target-width="265.40002" target-x="499.3" target-y="158.7"></path></g></g><path d="M 248.40 672.20 L 247.30 671.80 L 246.90 670.70 L 246.90 224.50 L 247.20 215.50 L 248.10 206.80 L 249.60 198.20 L 251.60 189.90 L 254.10 181.70 L 257.20 173.80 L 260.70 166.10 L 264.70 158.70 L 269.20 151.60 L 274.10 144.80 L 279.40 138.40 L 285.20 132.30 L 291.30 126.60 L 297.70 121.30 L 304.40 116.40 L 311.60 111.90 L 319.00 107.90 L 326.60 104.30 L 334.50 101.30 L 342.70 98.70 L 351.10 96.70 L 359.60 95.30 L 368.40 94.40 L 377.40 94.10 L 386.40 94.40 L 395.20 95.30 L 403.70 96.70 L 412.00 98.70 L 420.20 101.30 L 428.20 104.30 L 435.80 107.90 L 443.20 111.90 L 450.30 116.40 L 457.10 121.30 L 463.50 126.60 L 469.60 132.30 L 475.30 138.40 L 480.60 144.80 L 485.50 151.60 L 490.00 158.70 L 494.00 166.10 L 497.60 173.80 L 500.60 181.70 L 503.20 189.90 L 505.20 198.20 L 506.70 206.80 L 507.50 215.50 L 507.90 224.50 L 507.70 225.10 L 507.00 225.90 L 505.80 225.90 L 505.00 225.10 L 504.60 215.70 L 503.70 207.20 L 502.30 198.80 L 500.30 190.70 L 497.80 182.70 L 494.80 174.90 L 491.40 167.50 L 487.40 160.30 L 483.00 153.30 L 478.30 146.70 L 473.10 140.40 L 467.50 134.40 L 461.50 128.80 L 455.20 123.70 L 448.60 118.90 L 441.70 114.50 L 434.50 110.60 L 427.00 107.10 L 419.30 104.10 L 411.20 101.60 L 403.10 99.70 L 394.70 98.20 L 386.20 97.40 L 377.40 97.10 L 368.60 97.40 L 360.00 98.20 L 351.70 99.70 L 343.50 101.60 L 335.50 104.10 L 327.80 107.10 L 320.30 110.60 L 313.10 114.50 L 306.10 118.90 L 299.50 123.70 L 293.20 128.80 L 287.30 134.40 L 281.70 140.40 L 276.50 146.70 L 271.70 153.30 L 267.30 160.30 L 263.40 167.50 L 259.90 174.90 L 257.00 182.70 L 254.50 190.70 L 252.50 198.80 L 251.10 207.20 L 250.20 215.70 L 249.90 224.50 L 249.90 670.70 L 249.50 671.80 L 248.40 672.20 Z" fill="#5a6c1c" fill-rule="nonzero" node-id="257" stroke="none" target-height="578.10004" target-width="261" target-x="246.9" target-y="94.1"></path><path d="M 932.20 745.30 L 87.20 745.30 L 174.30 652.50 L 845.00 652.50 Z" fill="#26205c" fill-rule="nonzero" node-id="259" stroke="none" target-height="92.79999" target-width="845" target-x="87.2" target-y="652.5"></path><path d="M 87.20 745.30 L 932.20 745.30 L 932.20 759.20 L 87.20 759.20 Z" fill="#26205c" fill-rule="nonzero" node-id="261" stroke="none" target-height="13.900024" target-width="845" target-x="87.2" target-y="745.3"></path><g node-id="617"><g node-id="631"><path d="M 712.60 298.70 L 306.80 298.70 L 176.00 267.20 L 176.00 598.80 L 312.40 548.10 L 706.90 548.10 L 843.30 598.80 L 843.30 267.20 Z" fill="#ffffff" fill-rule="nonzero" group-id="2,16" node-id="267" stroke="none" target-height="331.59998" target-width="667.3" target-x="176" target-y="267.2"></path></g><g node-id="632"><g clip-path="url(#XMLID_3_)" group-id="2,17" node-id="270"><path d="M 124.90 203.60 L 311.30 203.60 L 311.30 635.00 L 124.90 635.00 Z" fill="#eaeaff" fill-rule="nonzero" group-id="2,17" node-id="272" stroke="none" target-height="431.4" target-width="186.4" target-x="124.9" target-y="203.6"></path></g></g><g node-id="633"><g clip-path="url(#XMLID_3_)" group-id="2,18" node-id="275"><path d="M 707.70 208.90 L 889.20 208.90 L 889.20 643.20 L 707.70 643.20 Z" fill="#eaeaff" fill-rule="nonzero" group-id="2,18" node-id="277" stroke="none" target-height="434.30002" target-width="181.5" target-x="707.7" target-y="208.9"></path></g></g><g node-id="634"><g clip-path="url(#XMLID_3_)" group-id="2,19" node-id="280"><path d="M 318.30 586.80 L 318.60 570.40 L 319.20 562.60 L 321.40 543.70 L 324.90 526.10 L 329.10 511.80 L 331.70 504.80 L 334.60 498.00 L 337.90 491.40 L 341.70 485.10 L 345.90 479.30 L 350.60 473.90 L 355.30 469.50 L 360.10 465.70 L 365.30 462.60 L 370.60 460.00 L 376.20 458.00 L 382.10 456.50 L 388.30 455.60 L 403.80 454.90 L 413.10 454.00 L 422.90 452.40 L 432.70 450.30 L 442.50 447.70 L 452.60 444.50 L 462.40 440.80 L 472.10 436.60 L 481.50 432.00 L 490.40 427.10 L 498.20 422.20 L 504.90 417.40 L 514.10 409.60 L 520.60 402.40 L 523.20 398.40 L 525.10 394.80 L 526.30 391.50 L 526.80 388.40 L 526.80 385.50 L 526.30 382.90 L 525.30 380.40 L 523.70 378.00 L 521.60 375.60 L 518.70 373.30 L 515.30 371.20 L 511.00 369.20 L 505.80 367.30 L 499.50 365.50 L 483.00 362.10 L 475.60 360.10 L 469.50 357.90 L 464.60 355.70 L 460.60 353.40 L 457.50 351.00 L 455.30 348.70 L 453.80 346.30 L 452.80 343.90 L 452.50 341.80 L 453.00 337.60 L 453.90 335.30 L 455.50 332.60 L 457.90 329.80 L 461.10 326.80 L 464.80 324.10 L 469.10 321.50 L 474.10 318.90 L 485.10 314.60 L 497.60 311.40 L 504.10 310.30 L 510.80 309.60 L 517.60 309.40 L 524.30 309.60 L 530.90 310.40 L 540.70 312.60 L 549.80 316.20 L 571.90 326.50 L 583.00 330.70 L 587.00 331.80 L 591.10 332.50 L 594.50 332.50 L 597.40 332.10 L 600.20 331.00 L 602.90 329.30 L 605.50 327.00 L 607.80 324.20 L 613.20 316.10 L 622.80 298.30 L 624.60 299.20 L 616.00 315.30 L 612.20 321.50 L 608.90 326.10 L 606.50 328.80 L 604.20 330.90 L 601.80 332.50 L 599.20 333.60 L 596.50 334.30 L 593.40 334.50 L 586.80 333.70 L 582.60 332.60 L 576.30 330.40 L 568.20 327.00 L 548.90 318.00 L 540.10 314.50 L 530.60 312.40 L 524.10 311.70 L 517.60 311.50 L 511.00 311.80 L 504.40 312.50 L 498.00 313.50 L 485.70 316.60 L 475.00 320.70 L 470.00 323.20 L 465.90 325.80 L 460.20 330.20 L 456.40 334.90 L 455.10 337.60 L 454.50 341.40 L 454.80 343.40 L 455.60 345.50 L 457.10 347.70 L 459.20 349.80 L 462.10 352.00 L 466.10 354.20 L 470.80 356.30 L 476.70 358.30 L 483.80 360.20 L 500.20 363.60 L 506.50 365.40 L 511.50 367.20 L 516.30 369.50 L 520.00 371.80 L 522.70 374.00 L 525.10 376.60 L 526.80 379.00 L 527.90 381.40 L 528.90 386.30 L 528.30 391.70 L 527.30 394.90 L 525.70 398.20 L 523.50 401.80 L 520.20 406.10 L 516.10 410.60 L 511.00 415.30 L 505.60 419.50 L 499.50 423.80 L 492.70 428.10 L 478.30 435.90 L 470.40 439.60 L 454.10 446.00 L 445.60 448.80 L 428.40 453.30 L 419.90 455.00 L 411.30 456.20 L 403.00 457.00 L 388.60 457.60 L 382.60 458.40 L 376.80 459.90 L 371.40 461.80 L 366.20 464.30 L 361.30 467.40 L 356.50 471.00 L 352.00 475.30 L 347.50 480.60 L 343.30 486.30 L 339.60 492.50 L 336.30 499.00 L 333.40 505.70 L 330.90 512.70 L 326.80 526.70 L 323.40 544.10 L 321.10 562.80 L 320.60 570.50 L 320.30 586.70 L 318.30 586.80 Z" fill="#5a78ec" fill-opacity="0.54" fill-rule="nonzero" group-id="2,19" node-id="282" stroke="none" target-height="288.5" target-width="306.3" target-x="318.3" target-y="298.3"></path></g></g><g node-id="635"><g clip-path="url(#XMLID_3_)" group-id="2,20" node-id="285"><path d="M 464.50 587.70 L 450.70 583.40 L 437.80 578.70 L 423.20 572.60 L 408.70 565.30 L 401.90 561.10 L 396.00 556.80 L 392.30 553.70 L 389.20 550.60 L 385.10 544.90 L 383.90 542.40 L 382.70 537.40 L 382.80 534.50 L 383.40 531.60 L 384.60 528.70 L 386.40 525.80 L 389.00 522.70 L 392.50 519.50 L 397.00 516.20 L 402.70 512.80 L 409.90 509.20 L 420.50 504.50 L 430.30 500.70 L 439.30 497.70 L 456.80 492.70 L 475.90 488.60 L 495.40 485.10 L 509.20 482.10 L 519.00 478.60 L 523.60 476.40 L 528.00 473.70 L 532.20 470.50 L 536.10 466.90 L 540.00 462.50 L 544.00 457.20 L 547.40 451.60 L 551.00 444.80 L 557.00 431.90 L 561.50 424.50 L 566.50 419.10 L 569.20 417.00 L 574.60 414.00 L 578.50 412.70 L 582.50 411.90 L 586.50 411.60 L 594.80 412.00 L 605.20 413.90 L 624.20 418.30 L 632.40 419.00 L 636.10 418.90 L 639.80 418.20 L 643.20 417.00 L 646.50 415.10 L 648.80 413.30 L 650.90 411.00 L 653.00 408.10 L 654.90 404.70 L 656.70 400.60 L 658.50 395.60 L 660.00 389.60 L 661.30 382.60 L 662.40 374.30 L 665.40 341.80 L 667.10 316.80 L 668.60 284.00 L 669.70 273.80 L 670.60 269.70 L 671.90 266.30 L 673.60 263.20 L 675.80 260.20 L 682.10 254.30 L 683.30 255.80 L 677.40 261.40 L 675.30 264.20 L 673.70 267.10 L 672.50 270.40 L 671.60 274.30 L 670.60 284.20 L 669.10 316.90 L 666.20 356.80 L 663.30 383.00 L 661.90 390.30 L 660.30 396.40 L 658.50 401.60 L 656.60 405.80 L 654.50 409.40 L 652.30 412.40 L 650.00 414.80 L 647.60 416.80 L 645.00 418.30 L 639.50 420.40 L 632.70 421.00 L 624.20 420.30 L 598.60 414.60 L 592.50 413.70 L 586.60 413.50 L 582.70 413.80 L 579.00 414.60 L 575.30 415.80 L 571.90 417.60 L 568.50 420.00 L 565.20 423.20 L 563.00 425.90 L 558.70 432.90 L 552.80 445.80 L 549.10 452.70 L 545.50 458.40 L 541.50 463.90 L 537.50 468.40 L 533.50 472.10 L 529.20 475.40 L 524.70 478.20 L 520.00 480.40 L 510.00 483.90 L 495.90 487.10 L 465.00 492.90 L 449.00 496.80 L 439.90 499.60 L 431.00 502.60 L 421.30 506.40 L 410.70 511.00 L 403.80 514.40 L 398.30 517.70 L 394.00 520.80 L 390.70 523.80 L 388.20 526.70 L 386.50 529.40 L 385.40 532.00 L 384.80 534.60 L 384.70 537.20 L 385.90 542.00 L 387.10 544.40 L 391.30 549.90 L 394.30 552.90 L 398.00 555.90 L 404.00 560.10 L 410.80 564.10 L 418.00 567.90 L 425.40 571.30 L 439.80 577.30 L 452.50 581.80 L 465.00 585.80 L 464.50 587.70 Z" fill="#5a78ec" fill-opacity="0.54" fill-rule="nonzero" group-id="2,20" node-id="287" stroke="none" target-height="333.40002" target-width="300.59998" target-x="382.7" target-y="254.3"></path></g></g><g node-id="636"><g clip-path="url(#XMLID_3_)" group-id="2,21" node-id="290"><path d="M 665.10 573.60 L 663.10 573.50 L 663.00 567.90 L 662.50 562.40 L 661.40 557.00 L 659.90 551.70 L 657.90 546.50 L 655.30 541.30 L 652.30 536.20 L 648.60 531.10 L 644.30 526.00 L 639.40 520.90 L 633.70 515.90 L 627.30 510.80 L 620.00 505.80 L 611.80 500.80 L 602.70 495.80 L 598.00 493.70 L 593.80 492.30 L 589.80 491.60 L 586.10 491.50 L 582.70 492.00 L 579.40 492.90 L 576.20 494.50 L 573.00 496.70 L 570.10 499.40 L 567.40 502.70 L 565.00 506.30 L 560.80 514.50 L 558.30 521.10 L 556.20 528.10 L 554.50 535.10 L 552.10 548.20 L 550.40 565.70 L 548.40 565.60 L 550.20 547.00 L 552.60 533.70 L 554.40 526.70 L 556.60 519.70 L 559.20 513.00 L 561.30 508.70 L 566.00 501.20 L 568.80 497.80 L 571.90 495.00 L 575.20 492.70 L 578.60 491.10 L 582.20 490.00 L 585.90 489.50 L 589.90 489.60 L 594.10 490.40 L 598.70 491.80 L 603.60 494.00 L 612.90 499.10 L 621.20 504.20 L 628.60 509.30 L 635.20 514.50 L 640.90 519.70 L 646.00 524.90 L 650.40 530.10 L 654.10 535.30 L 657.20 540.50 L 659.80 545.80 L 661.80 551.20 L 663.40 556.60 L 664.50 562.10 L 665.00 567.80 L 665.10 573.60 Z" fill="#5a78ec" fill-opacity="0.54" fill-rule="nonzero" group-id="2,21" node-id="292" stroke="none" target-height="84.099976" target-width="116.69995" target-x="548.4" target-y="489.5"></path></g></g><g node-id="637"><g clip-path="url(#XMLID_3_)" group-id="2,22" node-id="295"><path d="M 467.90 573.70 L 466.20 572.50 L 481.40 552.40 L 495.20 534.80 L 507.60 519.70 L 520.50 504.90 L 532.00 492.20 L 542.40 481.60 L 553.20 471.30 L 562.80 462.90 L 571.40 456.10 L 578.20 451.10 L 590.10 443.60 L 600.90 438.30 L 610.70 434.90 L 615.00 433.90 L 621.00 433.00 L 626.40 432.70 L 631.30 433.00 L 640.70 434.70 L 651.10 438.20 L 663.30 443.30 L 672.40 446.40 L 675.20 448.00 L 677.90 450.10 L 680.50 452.90 L 683.60 457.00 L 686.50 461.90 L 689.30 467.70 L 694.00 480.10 L 698.90 497.90 L 701.20 509.00 L 703.20 520.20 L 706.10 541.00 L 708.70 570.10 L 706.70 570.20 L 705.50 555.10 L 702.60 530.70 L 699.50 511.30 L 697.50 501.40 L 695.20 491.60 L 690.60 476.40 L 686.30 465.90 L 683.80 461.00 L 681.20 456.90 L 678.50 453.60 L 676.20 451.30 L 673.90 449.50 L 671.50 448.20 L 662.60 445.20 L 650.50 440.10 L 640.30 436.60 L 631.00 435.00 L 626.20 434.80 L 620.90 435.10 L 615.00 436.00 L 610.80 437.00 L 601.10 440.40 L 595.60 443.00 L 584.90 449.10 L 578.70 453.20 L 572.00 458.10 L 563.50 464.90 L 554.00 473.30 L 543.30 483.50 L 533.10 494.00 L 521.60 506.60 L 508.90 521.30 L 496.50 536.30 L 482.90 553.70 L 467.90 573.70 Z" fill="#5a78ec" fill-opacity="0.54" fill-rule="nonzero" group-id="2,22" node-id="297" stroke="none" target-height="141" target-width="242.5" target-x="466.2" target-y="432.7"></path></g></g><g clip-path="url(#XMLID_3_)" group-id="2,23" node-id="300"><path d="M 335.10 393.70 L 333.10 393.40 L 331.40 392.50 L 329.80 391.10 L 328.20 388.90 L 326.70 385.80 L 325.20 381.40 L 323.90 375.60 L 322.90 368.00 L 322.20 358.20 L 321.90 345.90 L 322.10 330.70 L 322.80 313.80 L 323.90 298.30 L 326.20 273.60 L 328.20 273.80 L 326.60 289.90 L 324.50 320.60 L 323.90 342.60 L 324.50 362.90 L 325.30 371.40 L 326.20 377.00 L 328.40 385.00 L 329.60 387.60 L 330.90 389.50 L 332.30 390.70 L 334.70 391.70 L 337.50 391.20 L 340.70 389.20 L 343.00 387.30 L 346.20 383.80 L 350.40 378.30 L 354.70 371.70 L 360.10 362.50 L 374.00 336.70 L 406.50 274.90 L 418.90 253.70 L 429.30 238.40 L 433.90 232.70 L 438.30 227.80 L 442.60 223.70 L 446.40 220.50 L 450.20 217.90 L 454.00 215.70 L 457.80 214.10 L 461.60 212.80 L 465.90 212.10 L 470.20 211.80 L 474.60 212.10 L 479.20 213.00 L 483.60 214.40 L 488.20 216.30 L 493.10 218.80 L 498.30 222.10 L 497.20 223.80 L 492.20 220.60 L 487.50 218.10 L 483.00 216.30 L 478.80 215.00 L 474.50 214.10 L 470.20 213.80 L 466.10 214.00 L 462.10 214.80 L 458.40 216.00 L 454.70 217.60 L 451.00 219.70 L 447.30 222.30 L 443.60 225.40 L 439.40 229.50 L 430.60 240.00 L 426.00 246.40 L 414.40 265.00 L 398.80 293.50 L 375.80 337.60 L 357.30 371.30 L 349.90 382.40 L 343.80 389.30 L 341.20 391.40 L 338.90 392.70 L 336.90 393.40 L 335.10 393.70 Z" fill="#5a78ec" fill-opacity="0.54" fill-rule="nonzero" group-id="2,23" node-id="302" stroke="none" target-height="181.90001" target-width="176.4" target-x="321.9" target-y="211.8"></path></g></g><path d="M 722.10 311.40 L 316.30 311.40 L 185.60 279.90 L 185.60 611.40 L 322.00 560.80 L 716.40 560.80 L 852.90 611.40 L 852.90 279.90 Z" fill="none" id="XMLID_105_" node-id="29" stroke="#232323" stroke-linecap="round" stroke-width="2" target-height="331.50003" target-width="667.30005" target-x="185.6" target-y="279.9"></path><path d="M 620.30 514.80 L 478.40 514.80 L 477.10 514.60 L 476.00 513.80 L 475.30 512.80 L 475.00 511.50 L 475.00 320.40 L 475.30 319.10 L 476.00 318.00 L 477.10 317.30 L 478.40 317.10 L 620.30 317.10 L 621.70 317.30 L 622.70 318.00 L 623.40 319.10 L 623.70 320.40 L 623.70 511.50 L 623.40 512.80 L 622.70 513.80 L 621.70 514.60 L 620.30 514.80 Z" fill="#5a78ec" fill-rule="nonzero" node-id="307" stroke="none" target-height="197.69998" target-width="148.70001" target-x="475" target-y="317.1"></path><g node-id="618"><g node-id="639"><path d="M 613.10 509.20 L 485.60 509.20 L 484.30 508.90 L 483.30 508.20 L 482.50 507.10 L 482.30 505.80 L 482.30 326.10 L 482.50 324.80 L 483.30 323.70 L 484.30 323.00 L 485.60 322.70 L 613.10 322.70 L 614.40 323.00 L 615.50 323.70 L 616.20 324.80 L 616.40 326.10 L 616.40 505.80 L 616.20 507.10 L 615.50 508.20 L 614.40 508.90 L 613.10 509.20 Z" fill="#ffffff" fill-rule="nonzero" group-id="3,24" node-id="313" stroke="none" target-height="186.5" target-width="134.10004" target-x="482.3" target-y="322.7"></path></g><g clip-path="url(#XMLID_4_)" group-id="3,25" node-id="316"><path d="M 545.20 508.00 L 545.00 513.20 L 544.40 518.20 L 543.40 523.10 L 540.20 532.50 L 535.80 541.10 L 533.10 545.10 L 526.80 552.40 L 519.50 558.70 L 515.50 561.40 L 506.80 565.90 L 497.50 569.00 L 492.60 570.00 L 482.40 570.80 L 477.10 570.60 L 472.10 570.00 L 467.20 569.00 L 457.90 565.90 L 449.20 561.40 L 445.20 558.70 L 437.90 552.40 L 431.60 545.10 L 428.90 541.10 L 424.50 532.50 L 421.30 523.10 L 420.30 518.20 L 419.70 513.20 L 419.50 508.00 L 419.70 502.80 L 420.30 497.70 L 421.30 492.80 L 424.50 483.50 L 428.90 474.90 L 431.60 470.90 L 437.90 463.50 L 445.20 457.20 L 449.20 454.50 L 457.90 450.10 L 467.20 447.00 L 472.10 446.00 L 477.10 445.30 L 482.40 445.10 L 487.60 445.30 L 492.60 446.00 L 497.50 447.00 L 506.80 450.10 L 515.50 454.50 L 519.50 457.20 L 526.80 463.50 L 533.10 470.90 L 535.80 474.90 L 540.20 483.50 L 543.40 492.80 L 544.40 497.70 L 545.00 502.80 L 545.20 508.00 Z" fill="#ff6666" fill-rule="nonzero" group-id="3,25" node-id="318" stroke="none" target-height="125.69998" target-width="125.70001" target-x="419.5" target-y="445.1"></path></g></g><g node-id="619"><g node-id="641"><g clip-path="url(#XMLID_5_)" group-id="4,26" node-id="324"><path d="M 616.40 439.00 L 616.20 444.80 L 615.50 450.40 L 614.40 455.90 L 612.80 461.20 L 610.90 466.30 L 608.60 471.20 L 605.90 475.90 L 602.90 480.40 L 599.50 484.70 L 595.90 488.60 L 591.90 492.20 L 587.70 495.60 L 583.20 498.60 L 578.50 501.30 L 573.60 503.60 L 568.40 505.60 L 563.10 507.10 L 557.70 508.20 L 552.10 508.90 L 546.20 509.20 L 540.40 508.90 L 534.80 508.20 L 529.30 507.10 L 524.10 505.60 L 518.90 503.60 L 514.00 501.30 L 509.30 498.60 L 504.80 495.60 L 500.50 492.20 L 496.60 488.60 L 493.00 484.70 L 489.60 480.40 L 486.60 475.90 L 483.90 471.20 L 481.60 466.30 L 479.60 461.20 L 478.10 455.90 L 477.00 450.40 L 476.30 444.80 L 476.00 439.00 L 476.30 433.10 L 477.00 427.50 L 478.10 422.10 L 479.60 416.80 L 481.60 411.60 L 483.90 406.70 L 486.60 402.00 L 489.60 397.50 L 493.00 393.30 L 496.60 389.30 L 500.50 385.70 L 504.80 382.30 L 509.30 379.30 L 514.00 376.60 L 518.90 374.30 L 524.10 372.40 L 529.30 370.80 L 534.80 369.70 L 540.40 369.00 L 546.20 368.80 L 552.10 369.00 L 557.70 369.70 L 563.10 370.80 L 568.40 372.40 L 573.60 374.30 L 578.50 376.60 L 583.20 379.30 L 587.70 382.30 L 591.90 385.70 L 595.90 389.30 L 599.50 393.30 L 602.90 397.50 L 605.90 402.00 L 608.60 406.70 L 610.90 411.60 L 612.80 416.80 L 614.40 422.10 L 615.50 427.50 L 616.20 433.10 L 616.40 439.00 Z" fill="none" group-id="4,26" node-id="326" stroke="#ff6666" stroke-linecap="butt" stroke-width="1" target-height="140.40002" target-width="140.40002" target-x="476" target-y="368.8"></path></g></g><path d="M 613.10 509.20 L 545.20 509.20 L 545.20 440.70 L 616.40 440.70 L 616.40 505.80 L 616.20 507.10 L 615.50 508.20 L 614.40 508.90 L 613.10 509.20 Z" fill="none" group-id="4,27" node-id="331" stroke="#ff6666" stroke-linecap="butt" stroke-width="1" target-height="68.5" target-width="71.20001" target-x="545.2" target-y="440.7"></path></g><g node-id="620"><path d="M 676.80 410.70 L 676.60 413.50 L 675.90 416.10 L 674.70 418.50 L 673.20 420.60 L 671.40 422.50 L 669.20 424.00 L 666.80 425.10 L 664.20 425.80 L 661.40 426.10 L 658.60 425.80 L 656.00 425.10 L 653.70 424.00 L 651.50 422.50 L 649.70 420.60 L 648.10 418.50 L 647.00 416.10 L 646.30 413.50 L 646.00 410.70 L 646.30 407.90 L 647.00 405.30 L 648.10 402.90 L 649.70 400.70 L 651.50 398.90 L 653.70 397.40 L 656.00 396.20 L 658.60 395.50 L 661.40 395.30 L 664.20 395.50 L 666.80 396.20 L 669.20 397.40 L 671.40 398.90 L 673.20 400.70 L 674.70 402.90 L 675.90 405.30 L 676.60 407.90 L 676.80 410.70 Z" fill="#ffb7b7" fill-rule="nonzero" group-id="5" node-id="337" stroke="none" target-height="30.800018" target-width="30.799988" target-x="646" target-y="395.3"></path><path d="M 669.30 393.50 L 669.10 395.00 L 667.60 397.70 L 666.30 398.60 L 665.00 399.20 L 663.40 399.40 L 661.90 399.20 L 659.20 397.70 L 657.70 395.00 L 657.50 393.50 L 657.70 391.90 L 658.30 390.60 L 659.20 389.30 L 660.50 388.40 L 663.40 387.60 L 665.00 387.80 L 667.60 389.30 L 668.50 390.60 L 669.30 393.50 Z" fill="#26205c" fill-rule="nonzero" group-id="5" node-id="339" stroke="none" target-height="11.799988" target-width="11.799988" target-x="657.5" target-y="387.6"></path><path d="M 677.70 379.80 L 677.50 382.00 L 676.80 384.20 L 675.80 386.20 L 674.30 387.90 L 672.60 389.40 L 670.60 390.40 L 668.40 391.10 L 666.20 391.30 L 663.90 391.10 L 661.80 390.40 L 659.80 389.40 L 658.00 387.90 L 656.60 386.20 L 655.50 384.20 L 654.90 382.00 L 654.70 379.80 L 654.90 377.50 L 655.50 375.40 L 656.60 373.40 L 658.00 371.60 L 659.80 370.20 L 661.80 369.10 L 663.90 368.50 L 666.20 368.30 L 668.40 368.50 L 670.60 369.10 L 672.60 370.20 L 674.30 371.60 L 675.80 373.40 L 676.80 375.40 L 677.50 377.50 L 677.70 379.80 Z" fill="#26205c" fill-rule="nonzero" group-id="5" node-id="341" stroke="none" target-height="23" target-width="23" target-x="654.7" target-y="368.3"></path><path d="M 661.40 400.40 L 660.20 403.30 L 658.90 405.10 L 656.20 407.30 L 652.10 409.10 L 649.40 409.60 L 644.90 409.90 L 645.30 406.60 L 645.80 404.40 L 646.80 402.10 L 649.60 398.20 L 653.40 395.60 L 655.60 394.70 L 658.40 394.00 L 661.90 393.70 L 667.10 394.80 L 669.30 395.80 L 673.00 398.60 L 675.60 402.10 L 676.50 404.20 L 677.70 409.90 L 671.90 409.30 L 667.70 407.90 L 665.60 406.70 L 662.80 403.80 L 661.40 400.40 Z" fill="#26205c" fill-rule="nonzero" group-id="5" node-id="343" stroke="none" target-height="16.199982" target-width="32.799988" target-x="644.9" target-y="393.7"></path><path d="M 600.80 444.10 L 596.50 439.80 L 596.40 434.50 L 596.00 433.40 L 594.90 433.00 L 593.90 433.40 L 593.50 434.50 L 593.50 436.80 L 589.10 432.40 L 587.80 431.50 L 586.40 430.90 L 583.40 430.90 L 580.70 432.40 L 579.10 435.10 L 579.10 438.20 L 579.70 439.60 L 580.70 440.90 L 592.10 452.30 L 593.00 452.90 L 595.00 452.90 L 595.90 452.30 L 600.80 447.40 L 601.50 445.80 L 600.80 444.10 Z" fill="#ffb7b7" fill-rule="nonzero" group-id="5" node-id="345" stroke="none" target-height="22" target-width="22.400024" target-x="579.1" target-y="430.9"></path><g node-id="643"><g node-id="649"><path d="M 693.20 437.40 L 690.10 436.90 L 675.00 437.10 L 673.20 433.60 L 671.30 432.40 L 670.20 432.30 L 655.90 433.10 L 654.20 434.20 L 652.10 438.20 L 637.30 438.20 L 635.40 438.40 L 632.20 440.00 L 629.70 442.60 L 622.00 464.10 L 602.20 442.80 L 601.00 442.80 L 600.50 443.10 L 589.80 453.00 L 589.30 454.10 L 589.70 455.20 L 618.70 486.60 L 621.30 488.50 L 622.70 489.10 L 625.00 489.60 L 627.30 489.50 L 629.40 488.70 L 631.30 487.50 L 632.80 485.80 L 633.90 483.70 L 635.70 478.50 L 638.60 495.80 L 681.50 492.70 L 688.30 493.70 L 694.10 493.90 L 696.90 493.70 L 700.10 492.70 L 700.80 492.00 L 701.00 491.00 L 701.00 447.00 L 700.70 444.70 L 700.00 442.70 L 698.80 440.80 L 697.20 439.30 L 695.40 438.20 L 693.20 437.40 Z" fill="#a9d4ca" fill-rule="nonzero" group-id="5,28,34" node-id="351" stroke="none" target-height="63.5" target-width="111.70001" target-x="589.3" target-y="432.3"></path></g><g node-id="650"><g clip-path="url(#SVGID_1_)" group-id="5,28,35" node-id="354"><path d="M 635.20 458.20 L 635.90 488.00 L 634.50 473.30 Z" fill="#94beb3" fill-rule="nonzero" group-id="5,28,35" node-id="356" stroke="none" target-height="29.799988" target-width="1.4000244" target-x="634.5" target-y="458.2"></path></g></g><g clip-path="url(#SVGID_1_)" group-id="5,28,36" node-id="359"><path d="M 676.80 494.80 L 679.80 450.80 L 679.80 497.70 Z" fill="#94beb3" fill-rule="nonzero" group-id="5,28,36" node-id="361" stroke="none" target-height="46.900024" target-width="3" target-x="676.8" target-y="450.8"></path></g></g><g node-id="644"><g node-id="652"><path d="M 654.70 670.70 L 632.30 670.70 L 632.20 673.70 L 631.20 677.90 L 630.10 680.20 L 627.80 682.90 L 624.30 685.00 L 622.00 685.80 L 613.00 687.60 L 608.00 689.80 L 606.50 690.90 L 604.20 693.70 L 603.50 695.30 L 603.20 697.30 L 603.30 699.60 L 654.70 699.60 L 654.70 670.70 Z" fill="#26205c" fill-rule="nonzero" group-id="5,29,37" node-id="369" stroke="none" target-height="28.899963" target-width="51.5" target-x="603.2" target-y="670.7"></path></g><g node-id="653"><g clip-path="url(#XMLID_7_)" group-id="5,29,38" node-id="372"><path d="M 669.00 697.10 L 589.30 697.10 L 589.30 695.50 L 669.00 695.50 Z" fill="#ffffff" fill-rule="nonzero" group-id="5,29,38" node-id="374" stroke="#ffffff" stroke-linecap="butt" stroke-width="1" target-height="1.5999756" target-width="79.70001" target-x="589.3" target-y="695.5"></path></g></g><path d="M 654.70 670.70 L 632.30 670.70 L 632.20 673.70 L 631.20 677.90 L 630.10 680.20 L 627.80 682.90 L 624.30 685.00 L 622.00 685.80 L 613.00 687.60 L 608.00 689.80 L 606.50 690.90 L 604.20 693.70 L 603.50 695.30 L 603.20 697.30 L 603.30 699.60 L 654.70 699.60 L 654.70 670.70 Z" fill="none" group-id="5,29,39" node-id="379" stroke="#ffffff" stroke-linecap="butt" stroke-width="1" target-height="28.899963" target-width="51.5" target-x="603.2" target-y="670.7"></path></g><g node-id="645"><g node-id="655"><path d="M 638.60 495.80 L 623.70 663.30 L 661.40 663.30 L 665.80 516.40 L 676.80 663.30 L 712.80 663.30 L 690.90 491.00 Z" fill="#8ea594" fill-rule="nonzero" group-id="5,30,40" node-id="387" stroke="none" target-height="172.29999" target-width="89.099976" target-x="623.7" target-y="491"></path></g><g clip-path="url(#SVGID_2_)" group-id="5,30,41" node-id="390"><path d="M 633.90 499.50 L 718.40 491.00 L 718.40 479.70 L 628.90 495.30 Z" fill="#7e9a84" fill-rule="nonzero" group-id="5,30,41" node-id="392" stroke="none" target-height="19.799988" target-width="89.5" target-x="628.9" target-y="479.7"></path></g></g><path d="M 628.90 658.10 L 628.20 657.80 L 627.90 657.10 L 639.60 505.60 L 640.40 504.70 L 642.90 503.90 L 646.10 502.20 L 647.70 500.60 L 649.30 497.40 L 650.00 497.10 L 650.70 497.50 L 650.90 498.20 L 650.30 500.20 L 649.50 501.50 L 646.70 504.20 L 644.60 505.40 L 641.50 506.50 L 629.90 657.20 L 629.60 657.90 L 628.90 658.10 Z" fill="#ffffff" fill-rule="nonzero" group-id="5" node-id="396" stroke="none" target-height="160.99997" target-width="23" target-x="627.9" target-y="497.1"></path><path d="M 707.70 658.10 L 707.10 657.90 L 706.70 657.30 L 687.30 516.60 L 687.50 515.80 L 688.20 515.40 L 688.90 515.60 L 689.30 516.30 L 708.70 657.00 L 708.50 657.70 L 707.70 658.10 Z" fill="#ffffff" fill-rule="nonzero" group-id="5" node-id="398" stroke="none" target-height="142.69995" target-width="21.400024" target-x="687.3" target-y="515.4"></path><path d="M 718.40 500.90 L 664.30 487.80 L 658.30 521.00 L 713.60 534.70 Z" fill="#ffb000" fill-rule="nonzero" group-id="5" node-id="400" stroke="none" target-height="46.900024" target-width="60.100037" target-x="658.3" target-y="487.8"></path><path d="M 694.50 507.00 L 687.80 507.00 L 686.50 507.20 L 685.40 508.00 L 684.70 509.00 L 684.40 510.40 L 684.40 517.50 L 681.00 523.70 L 681.30 524.70 L 681.70 525.10 L 682.80 525.20 L 683.60 524.60 L 684.40 523.10 L 684.40 527.20 L 684.70 529.00 L 685.40 530.60 L 686.40 531.90 L 687.80 533.00 L 689.40 533.70 L 691.20 533.90 L 693.00 533.70 L 694.60 533.00 L 696.00 531.90 L 697.10 530.60 L 697.80 529.00 L 698.00 527.20 L 698.00 510.50 L 697.70 509.10 L 697.00 508.00 L 695.90 507.20 L 694.50 507.00 Z" fill="#ffb7b7" fill-rule="nonzero" group-id="5" node-id="402" stroke="none" target-height="26.900024" target-width="17" target-x="681" target-y="507"></path><path d="M 699.50 516.40 L 681.40 516.40 L 680.30 516.00 L 679.80 514.80 L 680.00 445.70 L 680.50 443.90 L 682.30 440.80 L 685.10 438.50 L 688.50 437.20 L 692.30 437.20 L 695.80 438.50 L 698.50 440.80 L 699.60 442.30 L 700.80 445.70 L 701.00 514.90 L 700.60 516.00 L 699.50 516.40 Z" fill="#a9d4ca" fill-rule="nonzero" group-id="5" node-id="404" stroke="none" target-height="79.20001" target-width="21.200012" target-x="679.8" target-y="437.2"></path><path d="M 634.80 663.30 L 633.90 670.70 L 653.90 670.70 L 654.00 663.30 Z" fill="#ffb7b7" fill-rule="nonzero" group-id="5" node-id="406" stroke="none" target-height="7.4000244" target-width="20.099976" target-x="633.9" target-y="663.3"></path><g node-id="646"><g node-id="657"><path d="M 682.70 670.70 L 705.10 670.70 L 705.10 673.70 L 706.10 677.90 L 707.30 680.20 L 709.60 682.90 L 713.00 685.00 L 715.30 685.80 L 724.40 687.60 L 729.30 689.80 L 730.80 690.90 L 733.20 693.70 L 733.80 695.30 L 734.10 697.30 L 734.00 699.60 L 682.70 699.60 L 682.70 670.70 Z" fill="#26205c" fill-rule="nonzero" group-id="5,31,42" node-id="412" stroke="none" target-height="28.899963" target-width="51.399963" target-x="682.7" target-y="670.7"></path></g><g node-id="658"><g clip-path="url(#XMLID_8_)" group-id="5,31,43" node-id="415"><path d="M 668.40 695.50 L 748.00 695.50 L 748.00 697.10 L 668.40 697.10 Z" fill="#ffffff" fill-rule="nonzero" group-id="5,31,43" node-id="417" stroke="#ffffff" stroke-linecap="butt" stroke-width="1" target-height="1.5999756" target-width="79.599976" target-x="668.4" target-y="695.5"></path></g></g><path d="M 682.70 670.70 L 705.10 670.70 L 705.10 673.70 L 706.10 677.90 L 707.30 680.20 L 709.60 682.90 L 713.00 685.00 L 715.30 685.80 L 724.40 687.60 L 729.30 689.80 L 730.80 690.90 L 733.20 693.70 L 733.80 695.30 L 734.10 697.30 L 734.00 699.60 L 682.70 699.60 L 682.70 670.70 Z" fill="none" group-id="5,31,44" node-id="422" stroke="#ffffff" stroke-linecap="butt" stroke-width="1" target-height="28.899963" target-width="51.399963" target-x="682.7" target-y="670.7"></path></g><path d="M 702.50 663.30 L 703.50 670.70 L 683.50 670.70 L 683.30 663.30 Z" fill="#ffb7b7" fill-rule="nonzero" group-id="5" node-id="426" stroke="none" target-height="7.4000244" target-width="20.200012" target-x="683.3" target-y="663.3"></path><path d="M 649.90 441.90 L 649.20 441.60 L 648.90 440.90 L 649.20 440.20 L 649.90 439.90 L 677.20 439.30 L 677.90 439.60 L 678.30 440.30 L 678.00 441.00 L 677.30 441.30 L 649.90 441.90 Z" fill="#26205c" fill-rule="nonzero" group-id="5" node-id="428" stroke="none" target-height="2.600006" target-width="29.399963" target-x="648.9" target-y="439.3"></path></g><g node-id="621"><path d="M 819.90 653.70 L 815.40 640.00 L 812.00 625.20 L 810.70 616.60 L 809.80 607.00 L 809.60 593.80 L 810.10 586.80 L 811.00 579.90 L 812.40 572.90 L 814.30 565.80 L 818.30 555.60 L 823.90 545.60 L 824.80 546.10 L 821.80 551.10 L 817.00 561.10 L 815.20 566.20 L 813.30 573.20 L 811.90 580.10 L 811.00 587.00 L 810.60 593.90 L 810.80 607.00 L 811.70 616.50 L 813.00 625.10 L 816.40 639.70 L 820.90 653.30 L 819.90 653.70 Z" fill="#5a6c1c" fill-rule="nonzero" group-id="6" node-id="432" stroke="none" target-height="108.10004" target-width="15.200012" target-x="809.6" target-y="545.6"></path><path d="M 826.30 653.50 L 823.60 637.80 L 821.60 621.90 L 820.40 606.00 L 820.30 598.00 L 820.60 590.00 L 821.20 605.90 L 822.60 621.80 L 826.30 653.50 Z" fill="#5a6c1c" fill-rule="nonzero" group-id="6" node-id="434" stroke="none" target-height="63.5" target-width="6" target-x="820.3" target-y="590"></path><path d="M 820.30 573.60 L 819.90 573.30 L 819.80 573.00 L 820.10 567.90 L 819.70 564.00 L 818.90 559.80 L 817.20 554.50 L 815.70 550.90 L 810.80 542.80 L 811.00 542.10 L 811.70 542.20 L 816.60 550.50 L 818.10 554.20 L 819.90 559.60 L 820.70 564.00 L 821.10 568.00 L 820.80 573.20 L 820.30 573.60 Z" fill="#5a6c1c" fill-rule="nonzero" group-id="6" node-id="436" stroke="none" target-height="31.5" target-width="10.299988" target-x="810.8" target-y="542.1"></path><path d="M 837.60 656.70 L 836.60 650.70 L 835.90 648.30 L 833.50 643.30 L 830.30 639.60 L 828.70 636.40 L 827.20 632.60 L 824.30 622.70 L 822.00 611.30 L 820.60 599.90 L 820.50 590.10 L 821.00 586.40 L 822.00 586.60 L 821.50 590.20 L 821.40 594.90 L 822.20 605.40 L 823.00 611.00 L 825.30 622.30 L 828.10 632.10 L 829.50 635.80 L 831.10 638.90 L 834.20 642.70 L 835.70 645.10 L 836.80 647.80 L 837.60 650.30 L 838.60 656.70 L 837.60 656.70 Z" fill="#5a6c1c" fill-rule="nonzero" group-id="6" node-id="438" stroke="none" target-height="70.29999" target-width="18.099976" target-x="820.5" target-y="586.4"></path><path d="M 778.60 615.30 L 782.00 613.70 L 784.60 611.80 L 787.20 609.40 L 792.50 602.50 L 796.90 594.20 L 797.80 593.90 L 800.30 594.30 L 801.70 595.20 L 803.70 597.30 L 805.40 600.10 L 807.60 604.70 L 808.60 604.00 L 809.00 603.00 L 809.20 598.90 L 809.60 598.20 L 810.70 597.60 L 812.60 597.10 L 818.20 597.00 L 824.40 598.20 L 828.70 600.10 L 830.80 602.30 L 822.30 607.80 L 813.50 612.60 L 803.30 617.00 L 797.90 618.60 L 792.80 619.60 L 787.00 619.10 L 782.40 618.40 L 779.00 617.10 L 778.40 616.60 L 778.60 615.30 Z" fill="#aabb41" fill-rule="nonzero" group-id="6" node-id="440" stroke="none" target-height="25.699951" target-width="52.399963" target-x="778.4" target-y="593.9"></path><path d="M 841.90 623.20 L 841.90 620.50 L 841.30 618.80 L 839.60 616.70 L 836.40 615.00 L 830.80 614.10 L 822.20 614.50 L 806.70 617.60 L 795.60 619.10 L 802.90 616.00 L 813.00 610.50 L 818.80 605.90 L 822.20 601.70 L 824.20 600.30 L 827.20 599.40 L 829.00 599.30 L 831.00 599.70 L 833.10 600.70 L 836.90 603.40 L 839.50 606.70 L 840.70 609.20 L 841.70 613.00 L 842.20 619.10 L 841.90 623.20 Z" fill="#6f8037" fill-rule="nonzero" group-id="6" node-id="442" stroke="none" target-height="23.900024" target-width="46.600037" target-x="795.6" target-y="599.3"></path><path d="M 834.00 653.50 L 836.10 649.80 L 837.90 646.00 L 840.40 637.90 L 841.70 629.50 L 842.00 621.00 L 842.40 625.30 L 842.40 629.60 L 842.10 633.90 L 841.40 638.10 L 840.20 642.30 L 838.60 646.30 L 836.60 650.10 L 834.00 653.50 Z" fill="#5a6c1c" fill-rule="nonzero" group-id="6" node-id="444" stroke="none" target-height="32.5" target-width="8.400024" target-x="834" target-y="621"></path><path d="M 853.10 573.60 L 855.80 575.00 L 860.30 576.50 L 863.20 576.90 L 866.20 576.80 L 872.10 575.80 L 873.80 575.70 L 875.00 576.00 L 876.70 577.30 L 877.30 579.60 L 876.90 580.90 L 876.00 582.00 L 874.80 582.70 L 871.60 583.20 L 865.50 583.00 L 862.80 582.40 L 860.40 581.30 L 858.20 579.70 L 855.00 576.30 L 853.10 573.60 Z" fill="#6f8037" fill-rule="nonzero" group-id="6" node-id="446" stroke="none" target-height="9.600037" target-width="24.200012" target-x="853.1" target-y="573.6"></path><path d="M 870.20 583.30 L 848.70 582.20 L 843.10 582.30 L 833.10 583.20 L 829.60 583.90 L 826.20 585.00 L 823.60 586.40 L 822.10 587.70 L 821.10 589.20 L 820.60 591.10 L 818.80 589.70 L 817.80 588.50 L 817.00 586.90 L 816.50 584.60 L 816.70 580.90 L 818.20 575.90 L 821.60 569.30 L 823.90 566.50 L 827.80 563.40 L 832.30 561.60 L 836.60 561.50 L 838.70 562.00 L 841.20 563.10 L 843.90 564.80 L 843.70 573.10 L 847.70 567.00 L 854.20 573.80 L 860.80 579.10 L 865.80 581.90 L 870.20 583.30 Z" fill="#aabb41" fill-rule="nonzero" group-id="6" node-id="448" stroke="none" target-height="29.599976" target-width="53.700012" target-x="816.5" target-y="561.5"></path><path d="M 880.30 529.00 L 879.50 526.00 L 877.30 522.20 L 875.30 520.40 L 873.80 519.40 L 869.40 517.90 L 865.00 517.80 L 863.40 518.20 L 861.30 519.30 L 859.90 520.70 L 858.90 522.30 L 857.90 524.90 L 861.40 523.60 L 864.30 523.30 L 868.60 523.50 L 874.00 525.20 L 880.30 529.00 Z" fill="#6f8037" fill-rule="nonzero" group-id="6" node-id="450" stroke="none" target-height="11.200012" target-width="22.399963" target-x="857.9" target-y="517.8"></path><path d="M 823.40 547.30 L 823.40 539.00 L 823.80 535.30 L 825.60 527.20 L 827.20 523.40 L 828.50 521.10 L 830.20 519.10 L 832.10 517.40 L 834.30 516.10 L 836.90 515.20 L 840.00 514.80 L 843.10 515.00 L 846.90 515.90 L 851.50 517.60 L 861.70 517.50 L 870.20 517.90 L 864.10 519.50 L 860.90 521.30 L 859.20 523.50 L 859.10 527.10 L 858.60 528.70 L 857.30 530.60 L 854.70 533.40 L 851.10 536.40 L 846.90 539.30 L 842.20 542.00 L 837.30 544.30 L 832.40 546.00 L 829.10 546.80 L 823.40 547.30 Z" fill="#aabb41" fill-rule="nonzero" group-id="6" node-id="452" stroke="none" target-height="32.5" target-width="46.799988" target-x="823.4" target-y="514.8"></path><path d="M 824.30 546.50 L 826.20 541.70 L 828.40 537.00 L 831.10 532.60 L 836.60 525.80 L 839.10 523.50 L 844.20 520.10 L 846.50 518.90 L 851.50 517.60 L 848.30 518.70 L 845.20 520.20 L 842.40 522.00 L 838.50 525.30 L 835.00 529.10 L 831.90 533.10 L 829.10 537.40 L 824.30 546.50 Z" fill="#5a6c1c" fill-rule="nonzero" group-id="6" node-id="454" stroke="none" target-height="28.900024" target-width="27.200012" target-x="824.3" target-y="517.6"></path><path d="M 762.90 575.60 L 759.50 568.30 L 758.30 564.70 L 757.30 560.50 L 756.60 556.10 L 756.50 551.40 L 756.80 548.20 L 758.50 541.80 L 761.90 545.60 L 764.50 547.20 L 765.70 547.30 L 764.20 543.20 L 763.80 540.00 L 772.60 538.60 L 780.50 538.60 L 762.90 575.60 Z" fill="#aabb41" fill-rule="nonzero" group-id="6" node-id="456" stroke="none" target-height="37" target-width="24" target-x="756.5" target-y="538.6"></path><path d="M 763.30 578.00 L 762.60 573.50 L 762.70 566.30 L 764.20 558.50 L 766.80 551.40 L 770.90 544.30 L 773.90 540.60 L 777.10 537.10 L 781.10 533.60 L 785.90 530.00 L 788.60 539.50 L 791.70 531.10 L 796.80 531.10 L 801.70 532.60 L 804.30 534.10 L 807.00 536.30 L 808.50 538.10 L 811.50 543.10 L 806.80 542.60 L 803.10 542.70 L 799.20 543.30 L 794.30 544.70 L 791.10 545.90 L 784.00 550.10 L 780.60 552.90 L 777.00 556.40 L 773.30 560.70 L 770.00 565.40 L 766.60 571.10 L 763.30 578.00 Z" fill="#6f8037" fill-rule="nonzero" group-id="6" node-id="458" stroke="none" target-height="48" target-width="48.900024" target-x="762.6" target-y="530"></path><path d="M 805.20 651.40 L 853.10 651.40 L 838.30 695.80 L 820.00 695.80 Z" fill="#3f2700" fill-rule="nonzero" group-id="6" node-id="460" stroke="#ffffff" stroke-linecap="butt" stroke-width="1" target-height="44.399963" target-width="47.899963" target-x="805.2" target-y="651.4"></path></g><path d="M 198.40 294.60 L 198.40 502.20 L 286.30 478.80 L 286.30 313.80 Z" fill="#ffffff" fill-rule="nonzero" node-id="463" stroke="none" target-height="207.6" target-width="87.899994" target-x="198.4" target-y="294.6"></path><path d="M 208.20 311.50 L 208.20 335.70 L 278.00 347.90 L 278.00 324.70 Z" fill="#5a78ec" fill-rule="nonzero" node-id="465" stroke="none" target-height="36.399994" target-width="69.8" target-x="208.2" target-y="311.5"></path><g node-id="622"><path d="M 212.00 358.50 L 212.00 382.70 L 281.70 392.80 L 281.70 369.30 Z" fill="#5a78ec" fill-opacity="0.28" fill-rule="nonzero" group-id="7" node-id="469" stroke="none" target-height="34.299988" target-width="69.70001" target-x="212" target-y="358.5"></path></g><path d="M 224.50 352.40 L 224.50 376.70 L 294.20 386.80 L 294.20 363.30 Z" fill="#5a78ec" fill-rule="nonzero" node-id="472" stroke="none" target-height="34.399994" target-width="69.70001" target-x="224.5" target-y="352.4"></path><path d="M 208.20 395.40 L 208.20 429.90 L 240.80 427.60 L 240.80 398.40 Z" fill="#ff6666" fill-rule="nonzero" node-id="474" stroke="none" target-height="34.5" target-width="32.600006" target-x="208.2" target-y="395.4"></path><path d="M 208.20 438.90 L 208.20 475.70 L 240.80 468.50 L 240.80 436.80 Z" fill="#fdd740" fill-rule="nonzero" node-id="476" stroke="none" target-height="38.900024" target-width="32.600006" target-x="208.2" target-y="436.8"></path><path d="M 215.40 520.40 L 215.40 546.20 L 248.40 535.60 L 248.40 510.60 Z" fill="#5a78ec" fill-rule="nonzero" node-id="478" stroke="none" target-height="35.600006" target-width="33" target-x="215.4" target-y="510.6"></path><path d="M 269.80 506.40 L 269.80 532.20 L 302.80 521.60 L 302.80 496.50 Z" fill="#ff6666" fill-rule="nonzero" node-id="480" stroke="none" target-height="35.700012" target-width="33" target-x="269.8" target-y="496.5"></path><path d="M 787.00 395.60 L 786.80 397.10 L 785.40 399.50 L 783.00 400.90 L 781.50 401.10 L 778.70 400.40 L 776.70 398.40 L 776.20 397.10 L 776.00 395.60 L 776.70 392.80 L 778.70 390.80 L 781.50 390.10 L 783.00 390.30 L 785.40 391.70 L 786.80 394.10 L 787.00 395.60 Z" fill="none" node-id="482" stroke="#ffffff" stroke-linecap="butt" stroke-width="1" target-height="11" target-width="11" target-x="776" target-y="390.1"></path><g node-id="623"><path d="M 393.50 360.50 L 388.80 359.30 L 385.20 358.80 L 381.10 358.70 L 376.20 359.20 L 373.00 359.90 L 365.60 362.60 L 361.90 364.60 L 358.10 367.30 L 354.10 370.80 L 376.90 390.20 L 393.50 360.50 Z" fill="#6262b6" fill-opacity="0.33" fill-rule="nonzero" group-id="8" node-id="485" stroke="none" target-height="31.5" target-width="39.399994" target-x="354.1" target-y="358.7"></path><path d="M 424.90 388.20 L 426.80 392.70 L 427.90 396.20 L 428.60 400.20 L 428.90 405.10 L 428.70 408.40 L 427.10 416.20 L 425.70 420.10 L 423.60 424.20 L 420.70 428.70 L 398.20 409.20 L 424.90 388.20 Z" fill="#6262b6" fill-opacity="0.33" fill-rule="nonzero" group-id="8" node-id="487" stroke="none" target-height="40.5" target-width="30.699982" target-x="398.2" target-y="388.2"></path><g node-id="647"><g node-id="660"><path d="M 420.00 400.40 L 411.90 408.00 L 404.00 413.50 L 400.70 415.30 L 397.60 416.40 L 394.10 416.90 L 369.00 393.50 L 369.90 389.30 L 373.00 382.10 L 375.90 377.20 L 381.10 370.40 L 384.70 366.40 L 389.00 362.30 L 393.20 358.90 L 397.50 355.90 L 402.10 353.30 L 406.40 351.30 L 410.60 349.90 L 414.90 348.90 L 418.90 348.60 L 422.50 348.80 L 425.20 349.40 L 429.70 351.50 L 431.70 353.00 L 433.30 354.90 L 434.60 357.00 L 435.60 359.40 L 436.20 362.00 L 436.50 365.70 L 436.30 369.60 L 435.50 374.00 L 434.30 378.20 L 432.40 382.60 L 430.00 387.30 L 427.20 391.70 L 423.90 396.00 L 420.00 400.40 Z" fill="#6262b6" fill-opacity="0.33" fill-rule="nonzero" group-id="8,32,45" node-id="493" stroke="none" target-height="68.29999" target-width="67.5" target-x="369" target-y="348.6"></path></g><g clip-path="url(#SVGID_3_)" group-id="8,32,46" node-id="496"><path d="M 377.30 340.30 L 445.40 405.50 L 452.20 341.40 L 404.20 326.70 Z" fill="#6262b6" fill-opacity="0.33" fill-rule="nonzero" group-id="8,32,46" node-id="498" stroke="none" target-height="78.79999" target-width="74.900024" target-x="377.3" target-y="326.7"></path></g></g><path d="M 410.50 386.70 L 410.30 388.70 L 408.90 392.20 L 406.10 395.00 L 402.60 396.40 L 398.70 396.40 L 395.20 395.00 L 392.40 392.20 L 391.00 388.70 L 391.00 384.80 L 392.40 381.30 L 395.20 378.50 L 398.70 377.10 L 402.60 377.10 L 406.10 378.50 L 408.90 381.30 L 410.30 384.80 L 410.50 386.70 Z" fill="#6262b6" fill-opacity="0.33" fill-rule="nonzero" group-id="8" node-id="502" stroke="none" target-height="19.299988" target-width="19.5" target-x="391" target-y="377.1"></path><path d="M 380.50 441.40 L 383.20 438.00 L 384.90 434.80 L 385.90 432.00 L 386.40 429.10 L 386.50 426.40 L 386.00 423.90 L 384.80 420.40 L 383.10 417.50 L 381.20 415.00 L 376.40 410.20 L 372.00 406.90 L 369.10 405.40 L 365.50 404.40 L 363.00 404.00 L 360.30 404.20 L 357.40 404.80 L 354.60 406.00 L 351.60 407.90 L 347.30 411.70 L 343.40 416.90 L 342.00 419.90 L 343.40 420.00 L 347.90 419.10 L 357.20 416.40 L 354.40 419.50 L 350.80 424.70 L 349.20 427.90 L 348.00 431.30 L 347.40 435.00 L 347.40 437.40 L 347.80 439.90 L 348.70 442.50 L 351.30 443.30 L 353.90 443.60 L 356.30 443.50 L 360.00 442.70 L 363.30 441.30 L 366.40 439.60 L 371.40 435.80 L 374.40 432.80 L 372.20 442.20 L 371.50 446.70 L 371.60 448.10 L 374.60 446.60 L 376.60 445.10 L 380.50 441.40 Z" fill="#6262b6" fill-opacity="0.33" fill-rule="nonzero" group-id="8" node-id="504" stroke="none" target-height="44.100006" target-width="44.5" target-x="342" target-y="404"></path><path d="M 373.80 421.80 L 373.60 423.30 L 372.20 425.60 L 369.80 427.00 L 368.30 427.20 L 366.90 427.00 L 364.50 425.60 L 363.10 423.30 L 362.90 421.80 L 363.10 420.30 L 364.50 417.90 L 366.90 416.60 L 368.30 416.30 L 369.80 416.60 L 372.20 417.90 L 373.60 420.30 L 373.80 421.80 Z" fill="#6262b6" fill-opacity="0.33" fill-rule="nonzero" group-id="8" node-id="506" stroke="none" target-height="10.900024" target-width="10.899994" target-x="362.9" target-y="416.3"></path></g><g node-id="624"><path d="M 390.30 353.40 L 385.60 352.20 L 381.90 351.70 L 377.90 351.60 L 373.00 352.10 L 369.70 352.70 L 362.30 355.50 L 358.70 357.50 L 354.90 360.20 L 350.90 363.70 L 373.70 383.00 L 390.30 353.40 Z" fill="#2b4bb1" fill-rule="nonzero" group-id="9" node-id="510" stroke="none" target-height="31.399994" target-width="39.399994" target-x="350.9" target-y="351.6"></path><path d="M 421.60 381.10 L 423.60 385.60 L 424.60 389.10 L 425.30 393.10 L 425.60 398.00 L 425.50 401.30 L 423.90 409.10 L 422.40 413.00 L 420.40 417.10 L 417.50 421.60 L 394.90 402.10 L 421.60 381.10 Z" fill="#2b4bb1" fill-rule="nonzero" group-id="9" node-id="512" stroke="none" target-height="40.5" target-width="30.700012" target-x="394.9" target-y="381.1"></path><g node-id="648"><g node-id="662"><path d="M 416.70 393.30 L 408.70 400.90 L 400.80 406.40 L 397.40 408.10 L 394.30 409.30 L 390.90 409.80 L 365.80 386.40 L 366.70 382.20 L 369.80 375.00 L 372.70 370.10 L 377.80 363.30 L 381.50 359.30 L 385.70 355.20 L 390.00 351.80 L 394.30 348.80 L 398.80 346.20 L 403.20 344.20 L 407.40 342.80 L 411.70 341.80 L 415.60 341.50 L 419.30 341.70 L 421.90 342.20 L 424.30 343.10 L 426.50 344.40 L 428.40 345.90 L 430.10 347.80 L 431.40 349.90 L 432.30 352.30 L 433.00 354.90 L 433.30 358.60 L 433.10 362.50 L 432.30 366.90 L 431.00 371.10 L 429.20 375.50 L 426.80 380.10 L 424.00 384.60 L 420.60 388.90 L 416.70 393.30 Z" fill="#5a78eb" fill-rule="nonzero" group-id="9,33,47" node-id="518" stroke="none" target-height="68.29999" target-width="67.5" target-x="365.8" target-y="341.5"></path></g><g clip-path="url(#SVGID_4_)" group-id="9,33,48" node-id="521"><path d="M 374.10 333.10 L 442.20 398.40 L 449.00 334.30 L 401.00 319.60 Z" fill="#ff6666" fill-rule="nonzero" group-id="9,33,48" node-id="523" stroke="none" target-height="78.79999" target-width="74.899994" target-x="374.1" target-y="319.6"></path></g></g><path d="M 407.30 379.60 L 407.10 381.60 L 405.60 385.10 L 402.90 387.80 L 399.40 389.30 L 395.50 389.30 L 391.90 387.80 L 389.20 385.10 L 387.70 381.60 L 387.70 377.70 L 389.20 374.20 L 391.90 371.40 L 395.50 370.00 L 399.40 370.00 L 402.90 371.40 L 405.60 374.20 L 407.10 377.70 L 407.30 379.60 Z" fill="#ffffff" fill-rule="nonzero" group-id="9" node-id="527" stroke="none" target-height="19.299988" target-width="19.599976" target-x="387.7" target-y="370"></path><path d="M 377.20 434.30 L 379.90 430.80 L 381.70 427.70 L 382.70 424.90 L 383.20 422.00 L 383.20 419.30 L 382.80 416.80 L 381.50 413.30 L 379.90 410.40 L 378.00 407.90 L 373.10 403.10 L 368.80 399.80 L 365.80 398.30 L 362.30 397.20 L 359.80 396.90 L 357.10 397.10 L 354.20 397.70 L 351.40 398.90 L 348.40 400.80 L 344.00 404.60 L 340.20 409.80 L 338.80 412.80 L 340.20 412.90 L 344.70 412.00 L 354.00 409.30 L 351.10 412.40 L 347.60 417.60 L 346.00 420.80 L 344.70 424.20 L 344.10 427.90 L 344.10 430.30 L 344.60 432.80 L 345.50 435.40 L 348.10 436.20 L 350.60 436.50 L 353.10 436.40 L 356.70 435.60 L 360.10 434.20 L 363.20 432.50 L 368.20 428.70 L 371.20 425.70 L 368.90 435.10 L 368.30 439.60 L 368.40 441.00 L 371.40 439.50 L 373.40 438.00 L 377.20 434.30 Z" fill="#fdd740" fill-rule="nonzero" group-id="9" node-id="529" stroke="none" target-height="44.100006" target-width="44.400024" target-x="338.8" target-y="396.9"></path><path d="M 370.50 414.70 L 370.30 416.20 L 368.90 418.50 L 366.60 419.90 L 365.10 420.10 L 362.40 419.40 L 360.40 417.40 L 359.90 416.20 L 359.70 414.70 L 360.40 411.90 L 362.40 410.00 L 365.10 409.20 L 366.60 409.40 L 368.90 410.80 L 370.30 413.20 L 370.50 414.70 Z" fill="#fb6e42" fill-rule="nonzero" group-id="9" node-id="531" stroke="none" target-height="10.899994" target-width="10.799988" target-x="359.7" target-y="409.2"></path></g><path d="M 492.20 337.80 L 528.60 337.80 L 528.60 370.60 L 492.20 370.60 Z" fill="#5a78ec" fill-rule="nonzero" node-id="534" stroke="none" target-height="32.80002" target-width="36.399963" target-x="492.2" target-y="337.8"></path><path d="M 492.20 391.30 L 503.30 414.70 L 541.70 414.70 L 528.60 391.30 Z" fill="#5a78ec" fill-rule="nonzero" node-id="536" stroke="none" target-height="23.400024" target-width="49.5" target-x="492.2" target-y="391.3"></path><path d="M 535.10 337.80 L 534.70 345.40 L 535.60 351.90 L 537.30 355.90 L 540.20 359.60 L 542.40 364.00 L 543.50 367.50 L 544.00 370.60 L 544.20 375.60 L 576.60 375.60 L 576.40 371.20 L 575.80 368.10 L 574.80 364.80 L 573.10 361.10 L 571.70 358.70 L 569.80 356.50 L 565.90 352.60 L 563.90 349.20 L 563.10 346.40 L 562.80 343.80 L 562.80 341.30 L 563.30 337.80 L 535.10 337.80 Z" fill="#5a78ec" fill-rule="nonzero" node-id="538" stroke="none" target-height="37.80002" target-width="41.899963" target-x="534.7" target-y="337.8"></path><g node-id="625"><path d="M 793.80 275.70 L 796.30 279.20 L 799.20 285.70 L 800.60 291.60 L 801.00 298.80 L 800.00 307.20 L 798.90 311.60 L 797.20 316.40 L 794.80 321.70 L 793.30 324.30 L 788.70 330.40 L 785.30 334.00 L 780.90 337.70 L 777.60 339.90 L 774.00 341.90 L 769.90 343.70 L 765.60 344.90 L 760.90 345.70 L 755.60 345.90 L 751.70 345.70 L 747.50 345.00 L 743.00 343.80 L 738.10 342.10 L 732.50 339.10 L 727.90 335.50 L 724.80 332.70 L 723.50 331.20 L 721.80 327.70 L 758.80 331.70 L 786.80 308.70 L 791.00 283.30 L 792.50 277.40 L 793.10 276.00 L 793.80 275.70 Z" fill="#1c1b1b" fill-rule="nonzero" group-id="10" node-id="541" stroke="none" target-height="70.19998" target-width="79.20001" target-x="721.8" target-y="275.7"></path><path d="M 717.80 322.70 L 735.80 307.70 L 734.50 304.20 L 733.80 298.40 L 734.10 294.60 L 734.70 292.10 L 737.30 286.20 L 727.80 277.70 L 713.80 313.70 L 716.80 321.30 L 717.80 322.70 Z" fill="#1c1b1b" fill-rule="nonzero" group-id="10" node-id="543" stroke="none" target-height="45" target-width="23.5" target-x="713.8" target-y="277.7"></path><path d="M 727.80 264.70 L 725.80 268.70 L 740.80 281.70 L 744.20 279.20 L 746.90 277.80 L 750.00 276.60 L 753.80 275.90 L 756.40 275.80 L 759.30 276.10 L 762.60 276.90 L 765.70 278.10 L 769.10 280.00 L 772.80 282.70 L 789.80 269.70 L 783.80 264.70 L 727.80 264.70 Z" fill="#1c1b1b" fill-rule="nonzero" group-id="10" node-id="545" stroke="none" target-height="18" target-width="64" target-x="725.8" target-y="264.7"></path><path d="M 733.20 307.00 L 732.00 301.70 L 731.80 296.20 L 732.90 290.60 L 735.50 284.80 L 720.20 271.90 L 717.80 275.90 L 715.80 280.10 L 714.10 284.70 L 712.90 289.50 L 712.10 294.10 L 711.90 298.70 L 712.00 303.20 L 712.60 307.70 L 713.60 312.10 L 715.00 316.20 L 716.70 320.20 L 733.20 307.00 Z" fill="#ff6666" fill-rule="nonzero" group-id="10" node-id="547" stroke="none" target-height="48.30002" target-width="23.599976" target-x="711.9" target-y="271.9"></path><path d="M 768.80 253.30 L 764.90 252.30 L 757.10 251.50 L 753.20 251.70 L 748.10 252.50 L 743.10 253.90 L 738.30 255.90 L 733.80 258.50 L 729.50 261.60 L 725.60 265.20 L 741.10 278.20 L 744.30 275.90 L 747.70 274.30 L 751.20 273.10 L 756.80 272.60 L 762.60 273.60 L 766.00 274.90 L 769.00 276.80 L 771.60 279.10 L 788.10 266.20 L 782.60 260.80 L 779.50 258.40 L 772.60 254.70 L 768.80 253.30 Z" fill="#ffd840" fill-rule="nonzero" group-id="10" node-id="549" stroke="none" target-height="27.600006" target-width="62.5" target-x="725.6" target-y="251.5"></path><path d="M 776.20 285.60 L 778.10 291.40 L 778.50 294.60 L 778.60 297.80 L 778.20 301.00 L 777.40 304.30 L 776.20 307.50 L 774.60 310.40 L 772.80 313.10 L 768.20 317.50 L 762.90 320.60 L 760.00 321.50 L 757.00 322.10 L 754.00 322.30 L 750.90 322.00 L 747.80 321.30 L 744.80 320.10 L 742.00 318.60 L 739.60 316.60 L 737.40 314.40 L 720.80 326.80 L 723.50 330.10 L 726.50 333.10 L 729.80 335.80 L 733.40 338.10 L 737.30 340.00 L 741.50 341.60 L 745.80 342.70 L 750.10 343.30 L 754.40 343.40 L 758.60 343.10 L 762.80 342.30 L 766.80 341.20 L 770.70 339.60 L 774.60 337.60 L 778.20 335.30 L 781.60 332.70 L 784.70 329.70 L 787.70 326.30 L 790.30 322.70 L 792.60 318.90 L 794.60 314.70 L 796.20 310.20 L 797.50 305.20 L 798.20 300.30 L 798.50 295.50 L 798.20 290.80 L 797.50 286.10 L 796.40 281.60 L 794.80 277.30 L 792.80 273.20 L 776.20 285.60 Z" fill="#5a78ec" fill-rule="nonzero" group-id="10" node-id="551" stroke="none" target-height="70.19998" target-width="77.70001" target-x="720.8" target-y="273.2"></path><path d="M 734.40 333.40 L 728.80 329.30 L 726.50 327.10 L 726.50 326.40 L 727.20 326.40 L 731.80 330.50 L 734.70 332.50 L 734.80 333.20 L 734.40 333.40 Z" fill="#ffffff" fill-rule="nonzero" group-id="10" node-id="553" stroke="none" target-height="7" target-width="8.299988" target-x="726.5" target-y="326.4"></path><path d="M 753.60 339.20 L 749.60 339.00 L 745.60 338.30 L 741.50 337.10 L 741.20 336.40 L 741.50 336.10 L 749.00 337.90 L 756.00 338.10 L 762.30 337.10 L 765.40 336.10 L 770.40 333.70 L 770.70 333.90 L 770.60 334.60 L 768.50 335.90 L 763.10 337.90 L 757.00 339.00 L 753.60 339.20 Z" fill="#ffffff" fill-rule="nonzero" group-id="10" node-id="555" stroke="none" target-height="5.5" target-width="29.5" target-x="741.2" target-y="333.7"></path><path d="M 779.40 328.90 L 779.00 328.80 L 779.10 328.10 L 782.60 324.70 L 785.50 321.50 L 787.80 318.20 L 789.80 314.80 L 792.40 308.20 L 793.50 303.30 L 793.90 298.80 L 793.90 294.50 L 793.00 287.70 L 791.90 283.40 L 792.20 282.80 L 792.80 283.00 L 794.00 287.40 L 794.90 294.40 L 794.90 298.80 L 794.40 303.40 L 793.30 308.50 L 790.70 315.20 L 788.60 318.80 L 786.30 322.10 L 783.30 325.40 L 779.40 328.90 Z" fill="#ffffff" fill-rule="nonzero" group-id="10" node-id="557" stroke="none" target-height="46.100006" target-width="15.900024" target-x="779" target-y="282.8"></path></g><path d="M 231.90 561.10 L 231.30 560.90 L 230.90 560.10 L 230.90 540.90 L 231.20 540.20 L 231.90 539.90 L 232.60 540.20 L 232.90 540.90 L 232.90 558.70 L 288.60 540.20 L 288.60 525.80 L 288.90 525.10 L 289.60 524.80 L 290.30 525.10 L 290.60 525.80 L 290.60 540.90 L 289.90 541.80 L 231.90 561.10 Z" fill="#6363c0" fill-rule="nonzero" node-id="560" stroke="none" target-height="36.299988" target-width="59.700012" target-x="230.9" target-y="524.8"></path><path d="M 289.60 541.90 L 288.60 541.20 L 288.70 540.40 L 289.30 539.90 L 311.20 532.50 L 340.20 531.20 L 340.20 502.20 L 340.50 501.50 L 341.20 501.20 L 475.00 501.20 L 475.70 501.50 L 476.00 502.20 L 475.70 502.90 L 475.00 503.20 L 342.20 503.20 L 342.20 532.20 L 342.00 532.90 L 341.30 533.20 L 311.70 534.50 L 289.60 541.90 Z" fill="#6363c0" fill-rule="nonzero" node-id="562" stroke="none" target-height="40.700012" target-width="187.4" target-x="288.6" target-y="501.2"></path><path d="M 805.60 474.70 L 744.10 464.50 L 742.10 463.90 L 738.60 461.90 L 736.00 458.70 L 734.50 454.90 L 734.30 452.70 L 734.30 399.50 L 735.10 395.30 L 737.20 391.70 L 740.30 389.10 L 744.10 387.70 L 805.60 377.50 L 809.80 378.20 L 811.70 379.10 L 814.80 381.70 L 816.90 385.30 L 817.60 389.50 L 817.40 464.90 L 816.00 468.70 L 813.30 471.90 L 809.80 473.90 L 805.60 474.70 Z" fill="#5a78ec" fill-rule="nonzero" node-id="564" stroke="none" target-height="97.20001" target-width="83.29999" target-x="734.3" target-y="377.5"></path><path d="M 810.60 481.40 L 750.00 471.40 L 748.00 470.80 L 744.50 468.80 L 741.90 465.70 L 740.50 461.90 L 740.30 459.80 L 740.30 407.20 L 741.10 403.10 L 743.10 399.60 L 746.20 397.00 L 750.00 395.60 L 810.60 385.60 L 814.70 386.30 L 816.60 387.20 L 819.60 389.80 L 821.70 393.30 L 822.40 397.40 L 822.20 471.80 L 820.80 475.60 L 818.20 478.60 L 814.70 480.70 L 810.60 481.40 Z" fill="none" node-id="566" stroke="#232323" stroke-linecap="butt" stroke-width="1" target-height="95.79999" target-width="82.10004" target-x="740.3" target-y="385.6"></path><path d="M 793.00 424.10 L 792.70 427.70 L 791.80 431.00 L 790.30 434.10 L 788.40 436.90 L 786.00 439.20 L 783.30 441.20 L 780.20 442.60 L 776.90 443.50 L 773.30 443.90 L 769.70 443.50 L 766.40 442.60 L 763.40 441.20 L 760.60 439.20 L 758.30 436.90 L 756.30 434.10 L 754.90 431.00 L 754.00 427.70 L 753.60 424.10 L 754.00 420.50 L 754.90 417.30 L 756.30 414.20 L 758.30 411.40 L 760.60 409.10 L 763.40 407.10 L 766.40 405.70 L 769.70 404.80 L 773.30 404.40 L 776.90 404.80 L 780.20 405.70 L 783.30 407.10 L 786.00 409.10 L 788.40 411.40 L 790.30 414.20 L 791.80 417.30 L 792.70 420.50 L 793.00 424.10 Z" fill="#ffffff" fill-rule="nonzero" node-id="568" stroke="none" target-height="39.5" target-width="39.400024" target-x="753.6" target-y="404.4"></path><path d="M 804.20 396.90 L 804.00 398.50 L 802.50 401.00 L 800.00 402.50 L 798.50 402.70 L 795.60 401.90 L 793.50 399.80 L 792.90 398.50 L 792.70 396.90 L 793.50 394.00 L 795.60 391.90 L 798.50 391.20 L 800.00 391.40 L 802.50 392.90 L 804.00 395.40 L 804.20 396.90 Z" fill="none" node-id="570" stroke="#ffffff" stroke-linecap="butt" stroke-width="1" target-height="11.5" target-width="11.5" target-x="792.7" target-y="391.2"></path><path d="M 601.80 390.20 L 555.30 390.20 L 554.80 389.70 L 554.90 389.40 L 601.80 389.20 L 602.30 389.70 L 601.80 390.20 Z" fill="#232323" fill-rule="nonzero" node-id="572" stroke="none" target-height="1" target-width="47.5" target-x="554.8" target-y="389.2"></path><path d="M 576.60 396.10 L 555.30 396.10 L 554.80 395.60 L 554.90 395.20 L 576.60 395.10 L 577.10 395.60 L 576.60 396.10 Z" fill="#232323" fill-rule="nonzero" node-id="574" stroke="none" target-height="1" target-width="22.299988" target-x="554.8" target-y="395.1"></path><path d="M 592.90 396.10 L 582.90 396.10 L 582.40 395.60 L 582.90 395.10 L 592.90 395.10 L 593.40 395.60 L 592.90 396.10 Z" fill="#232323" fill-rule="nonzero" node-id="576" stroke="none" target-height="1" target-width="11" target-x="582.4" target-y="395.1"></path><path d="M 564.90 401.90 L 555.30 401.90 L 554.80 401.40 L 554.90 401.00 L 564.90 400.90 L 565.40 401.40 L 564.90 401.90 Z" fill="#232323" fill-rule="nonzero" node-id="578" stroke="none" target-height="1" target-width="10.600037" target-x="554.8" target-y="400.9"></path><path d="M 587.70 401.90 L 570.80 401.90 L 570.30 401.40 L 570.40 401.00 L 587.70 400.90 L 588.20 401.40 L 587.70 401.90 Z" fill="#232323" fill-rule="nonzero" node-id="580" stroke="none" target-height="1" target-width="17.900024" target-x="570.3" target-y="400.9"></path><path d="M 610.60 401.90 L 592.00 401.90 L 591.50 401.40 L 592.00 400.90 L 610.60 400.90 L 611.10 401.40 L 610.60 401.90 Z" fill="#232323" fill-rule="nonzero" node-id="582" stroke="none" target-height="1" target-width="19.599976" target-x="591.5" target-y="400.9"></path><path d="M 595.60 407.70 L 555.30 407.70 L 554.80 407.20 L 555.30 406.70 L 595.60 406.70 L 596.10 407.20 L 595.60 407.70 Z" fill="#232323" fill-rule="nonzero" node-id="584" stroke="none" target-height="1" target-width="41.299988" target-x="554.8" target-y="406.7"></path><path d="M 606.80 407.70 L 600.10 407.70 L 599.60 407.20 L 600.10 406.70 L 606.80 406.70 L 607.30 407.20 L 606.80 407.70 Z" fill="#232323" fill-rule="nonzero" node-id="586" stroke="none" target-height="1" target-width="7.700012" target-x="599.6" target-y="406.7"></path><path d="M 576.60 413.50 L 555.30 413.50 L 554.80 413.00 L 554.90 412.70 L 576.60 412.50 L 577.10 413.00 L 576.60 413.50 Z" fill="#232323" fill-rule="nonzero" node-id="588" stroke="none" target-height="1" target-width="22.299988" target-x="554.8" target-y="412.5"></path><path d="M 603.40 413.50 L 580.60 413.50 L 580.10 413.00 L 580.60 412.50 L 603.40 412.50 L 603.90 413.00 L 603.40 413.50 Z" fill="#232323" fill-rule="nonzero" node-id="590" stroke="none" target-height="1" target-width="23.800049" target-x="580.1" target-y="412.5"></path><path d="M 525.90 374.40 L 502.00 374.40 L 499.60 373.80 L 497.90 372.10 L 497.30 369.70 L 497.30 345.80 L 497.50 344.50 L 498.70 342.40 L 500.70 341.20 L 502.00 341.10 L 525.90 341.10 L 528.30 341.70 L 530.00 343.40 L 530.60 345.80 L 530.60 369.70 L 530.40 371.00 L 529.20 373.00 L 527.20 374.20 L 525.90 374.40 Z" fill="none" node-id="592" stroke="#232323" stroke-linecap="butt" stroke-width="1" target-height="33.299988" target-width="33.299988" target-x="497.3" target-y="341.1"></path><path d="M 544.00 416.90 L 494.50 416.90 L 493.10 416.60 L 492.00 415.90 L 491.20 414.70 L 490.90 413.30 L 491.20 412.00 L 492.00 410.80 L 493.10 410.10 L 494.50 409.80 L 544.00 409.80 L 545.30 410.10 L 546.50 410.80 L 547.20 412.00 L 547.50 413.30 L 547.20 414.70 L 546.50 415.90 L 545.30 416.60 L 544.00 416.90 Z" fill="none" node-id="594" stroke="#232323" stroke-linecap="butt" stroke-width="1" target-height="7.100006" target-width="56.600006" target-x="490.9" target-y="409.8"></path><path d="M 440.10 275.20 L 506.30 222.90 L 590.60 272.90 Z" fill="#aabb41" fill-rule="nonzero" node-id="596" stroke="none" target-height="52.30002" target-width="150.49997" target-x="440.1" target-y="222.9"></path><path d="M 220.40 151.30 L 218.40 159.10 L 217.30 165.20 L 216.40 171.90 L 215.80 180.00 L 215.80 191.30 L 216.40 197.50 L 217.30 203.60 L 218.80 209.80 L 220.70 216.10 L 222.60 220.60 L 227.40 229.50 L 230.40 233.80 L 233.70 237.80 L 237.50 241.70 L 241.90 245.40 L 246.90 249.00 L 248.50 231.00 L 248.60 216.60 L 248.10 208.50 L 247.20 200.30 L 245.70 192.00 L 244.40 186.50 L 240.80 175.90 L 238.50 170.90 L 235.70 166.20 L 232.60 161.80 L 230.00 158.80 L 223.80 153.50 L 220.40 151.30 Z" fill="#aabb41" fill-rule="nonzero" node-id="598" stroke="none" target-height="97.7" target-width="32.800003" target-x="215.8" target-y="151.3"></path><path d="M 279.80 140.50 L 284.20 136.20 L 291.80 130.20 L 300.40 125.10 L 308.50 121.70 L 312.80 120.50 L 317.30 119.70 L 322.10 119.30 L 326.90 119.40 L 331.80 120.20 L 337.00 121.70 L 340.70 123.10 L 344.50 125.10 L 348.50 127.70 L 352.60 130.80 L 349.20 135.00 L 343.70 139.60 L 337.00 143.20 L 333.20 144.70 L 328.70 146.00 L 323.40 147.00 L 318.00 147.50 L 311.70 147.40 L 304.50 146.80 L 299.20 146.00 L 286.90 142.90 L 279.80 140.50 Z" fill="#aabb41" fill-rule="nonzero" node-id="600" stroke="none" target-height="28.199997" target-width="72.80002" target-x="279.8" target-y="119.3"></path><path d="M 395.40 95.60 L 398.80 90.70 L 401.60 87.40 L 404.90 84.00 L 412.00 78.20 L 418.90 74.40 L 422.60 73.10 L 426.70 72.10 L 431.00 71.70 L 434.20 71.70 L 441.20 73.00 L 445.10 74.30 L 444.30 78.20 L 442.20 82.80 L 438.90 86.90 L 436.70 88.80 L 433.90 90.60 L 430.40 92.40 L 426.60 93.80 L 422.00 94.90 L 416.30 95.80 L 410.60 96.20 L 403.70 96.20 L 395.40 95.60 Z" fill="#aabb41" fill-rule="nonzero" node-id="602" stroke="none" target-height="24.5" target-width="49.700012" target-x="395.4" target-y="71.7"></path><path d="M 447.50 116.40 L 444.90 121.40 L 443.50 125.40 L 442.10 131.70 L 441.60 139.50 L 442.00 143.80 L 442.90 148.60 L 444.20 153.20 L 446.30 158.20 L 449.20 163.60 L 454.80 171.40 L 462.90 180.10 L 465.30 174.60 L 466.70 170.30 L 467.70 165.50 L 468.30 159.60 L 468.30 155.50 L 467.90 151.20 L 467.00 146.40 L 465.60 141.70 L 463.60 136.80 L 460.70 131.60 L 455.30 124.30 L 447.50 116.40 Z" fill="#aabb41" fill-rule="nonzero" node-id="604" stroke="none" target-height="63.700005" target-width="26.699982" target-x="441.6" target-y="116.4"></path><path d="M 864.50 358.40 L 857.90 365.20 L 856.60 366.30 L 855.00 367.00 L 853.40 367.30 L 851.60 367.10 L 840.90 364.20 L 839.50 363.20 L 838.40 361.90 L 835.10 351.20 L 834.90 349.50 L 835.10 347.80 L 835.70 346.30 L 836.70 344.90 L 843.20 338.10 L 844.60 337.00 L 846.10 336.30 L 847.80 336.00 L 849.50 336.20 L 860.30 339.10 L 861.60 340.10 L 862.70 341.40 L 866.00 352.10 L 866.30 353.80 L 866.10 355.50 L 865.50 357.00 L 864.50 358.40 Z" fill="none" node-id="606" stroke="#5a78ec" stroke-linecap="butt" stroke-width="2" target-height="31.299988" target-width="31.399963" target-x="834.9" target-y="336"></path><path d="M 457.80 308.40 L 450.00 303.90 L 448.70 302.80 L 447.70 301.60 L 447.10 300.10 L 446.90 298.50 L 447.10 296.90 L 447.70 295.30 L 452.10 288.30 L 453.30 287.30 L 454.80 286.70 L 456.40 286.50 L 458.00 286.70 L 459.60 287.30 L 467.30 291.80 L 468.70 292.90 L 469.60 294.10 L 470.30 295.60 L 470.50 297.20 L 470.30 298.80 L 469.60 300.40 L 465.30 307.40 L 464.00 308.40 L 462.50 309.00 L 460.90 309.20 L 459.40 309.00 L 457.80 308.40 Z" fill="none" node-id="608" stroke="#5a78ec" stroke-linecap="butt" stroke-width="2" target-height="22.700012" target-width="23.600006" target-x="446.9" target-y="286.5"></path><path d="M 331.70 282.10 L 331.40 284.40 L 330.60 286.40 L 329.30 288.10 L 327.50 289.40 L 325.60 290.30 L 323.30 290.60 L 321.00 290.30 L 319.00 289.40 L 317.30 288.10 L 316.00 286.40 L 315.20 284.40 L 314.90 282.10 L 315.20 279.90 L 316.00 277.90 L 317.30 276.20 L 319.00 274.90 L 321.00 274.00 L 323.30 273.70 L 325.60 274.00 L 327.50 274.90 L 329.30 276.20 L 330.60 277.90 L 331.40 279.90 L 331.70 282.10 Z" fill="#5a78ec" fill-rule="nonzero" node-id="610" stroke="none" target-height="16.899994" target-width="16.800018" target-x="314.9" target-y="273.7"></path><path d="M 178.90 463.40 L 154.90 460.60 L 153.70 460.30 L 152.10 458.60 L 152.00 456.40 L 152.50 455.30 L 166.90 435.80 L 167.80 435.00 L 168.90 434.50 L 171.10 434.80 L 172.00 435.40 L 172.70 436.50 L 182.40 458.70 L 182.70 459.90 L 182.00 462.00 L 180.20 463.30 L 178.90 463.40 Z" fill="none" node-id="612" stroke="#5a78ec" stroke-linecap="butt" stroke-width="2" target-height="28.899994" target-width="30.699997" target-x="152" target-y="434.5"></path><path d="M 440.10 466.60 L 439.80 468.80 L 439.00 470.70 L 437.70 472.40 L 436.10 473.70 L 434.10 474.50 L 431.90 474.80 L 429.70 474.50 L 427.80 473.70 L 426.10 472.40 L 424.80 470.70 L 424.00 468.80 L 423.70 466.60 L 424.00 464.40 L 424.80 462.40 L 426.10 460.80 L 427.80 459.50 L 429.70 458.70 L 431.90 458.40 L 434.10 458.70 L 436.10 459.50 L 437.70 460.80 L 439.00 462.40 L 439.80 464.40 L 440.10 466.60 Z" fill="none" node-id="614" stroke="#5a78ec" stroke-linecap="butt" stroke-width="2" target-height="16.399994" target-width="16.399994" target-x="423.7" target-y="458.4"></path></svg>