<?xml version="1.0" standalone="no"?><!DOCTYPE svg PUBLIC "-//W3C//DTD SVG 1.1//EN" "http://www.w3.org/Graphics/SVG/1.1/DTD/svg11.dtd"><svg t="1741872715005" class="icon" viewBox="0 0 1024 1024" version="1.1" xmlns="http://www.w3.org/2000/svg" p-id="1321" xmlns:xlink="http://www.w3.org/1999/xlink" width="200" height="200"><path d="M341.333333 85.333333H256v170.666667H85.333333v85.333333h170.666667a85.333333 85.333333 0 0 0 85.333333-85.333333V85.333333z m341.333334 0h85.333333v170.666667h170.666667v85.333333h-170.666667a85.333333 85.333333 0 0 1-85.333333-85.333333V85.333333zM341.333333 938.666667H256v-170.666667H85.333333v-85.333333h170.666667a85.333333 85.333333 0 0 1 85.333333 85.333333v170.666667z m341.333334 0h85.333333v-170.666667h170.666667v-85.333333h-170.666667a85.333333 85.333333 0 0 0-85.333333 85.333333v170.666667z" p-id="1322"></path></svg>